<?xml version="1.0" encoding="utf-8"?>
<!-- Generator: Adobe Illustrator 27.8.0, SVG Export Plug-In . SVG Version: 6.00 Build 0)  -->
<svg version="1.1" id="Calque_1" xmlns="http://www.w3.org/2000/svg" xmlns:xlink="http://www.w3.org/1999/xlink" x="0px" y="0px"
	 viewBox="0 0 1117.1 1117.1" style="enable-background:new 0 0 1117.1 1117.1;" xml:space="preserve">
<style type="text/css">
	.st0{clip-path:url(#SVGID_00000114758601644253869080000017314879662200307630_);}
	.st1{fill:#020107;}
	.st2{fill:#030307;}
	.st3{fill:#040303;}
	.st4{fill:#0D132B;}
	.st5{fill:#080808;}
	.st6{fill:#37210D;}
	.st7{fill:#281C13;}
	.st8{fill:#3F241E;}
	.st9{fill:#272723;}
	.st10{fill:#351E02;}
	.st11{fill:#202429;}
	.st12{fill:#281206;}
	.st13{fill:#1E1C1E;}
	.st14{fill:#5E666E;}
	.st15{fill:#243138;}
	.st16{fill:#82878D;}
	.st17{fill:#190702;}
	.st18{fill:#6F7375;}
	.st19{fill:#F1EFE2;}
	.st20{fill:#394550;}
	.st21{fill:#141919;}
	.st22{fill:#090507;}
	.st23{fill:#471D07;}
	.st24{fill:#42230F;}
	.st25{fill:#191B29;}
	.st26{fill:#2F1505;}
	.st27{fill:#3A2932;}
	.st28{fill:#492E10;}
	.st29{fill:#272923;}
	.st30{fill:#1C1D16;}
	.st31{fill:#232117;}
	.st32{fill:#3C2823;}
	.st33{fill:#5A432E;}
	.st34{fill:#2C3943;}
	.st35{fill:#3C2D20;}
	.st36{fill:#0B0B0B;}
	.st37{fill:#131C23;}
	.st38{fill:#1B0B0A;}
	.st39{fill:#102020;}
	.st40{fill:#181508;}
	.st41{fill:#011724;}
	.st42{fill:#2E1A02;}
	.st43{fill:#2A241E;}
	.st44{fill:#2B120A;}
	.st45{fill:#1F1A21;}
	.st46{fill:#272017;}
	.st47{fill:#251508;}
	.st48{fill:#363230;}
	.st49{fill:#242225;}
	.st50{fill:#211207;}
	.st51{fill:#25211C;}
	.st52{fill:#221B0F;}
	.st53{fill:#110B21;}
	.st54{fill:#19131F;}
	.st55{fill:#070404;}
	.st56{fill:#1F1C25;}
	.st57{fill:#130C21;}
	.st58{fill:#25251F;}
	.st59{fill:#22162A;}
	.st60{fill:#1F0607;}
	.st61{fill:#353247;}
	.st62{fill:#0B1521;}
	.st63{fill:#061218;}
	.st64{fill:#040202;}
	.st65{fill:#212831;}
	.st66{fill:#140903;}
	.st67{fill:#412205;}
	.st68{fill:#2A1403;}
	.st69{fill:#50331A;}
	.st70{fill:#454658;}
	.st71{fill:#464145;}
	.st72{fill:#0E0905;}
	.st73{fill:#110D21;}
	.st74{fill:#10213C;}
	.st75{fill:#030202;}
	.st76{fill:#0E0D0E;}
	.st77{fill:#221F16;}
	.st78{fill:#282523;}
	.st79{fill:#15100D;}
	.st80{fill:#1D160D;}
	.st81{fill:#0F0606;}
	.st82{fill:#381707;}
	.st83{fill:#250F05;}
	.st84{fill:#322A40;}
	.st85{fill:#373534;}
	.st86{fill:#2A3921;}
	.st87{fill:#2C3D2C;}
	.st88{fill:#433609;}
	.st89{fill:#2E330B;}
	.st90{fill:#5F6160;}
	.st91{fill:#02020E;}
	.st92{fill:#222E38;}
	.st93{fill:#1D2222;}
	.st94{fill:#16100A;}
	.st95{fill:#3F424C;}
	.st96{fill:#252115;}
	.st97{fill:#4D4E58;}
	.st98{fill:#1A0B03;}
	.st99{fill:#262729;}
	.st100{fill:#1D1713;}
	.st101{fill:#241C12;}
	.st102{fill:#1D2121;}
	.st103{fill:#242A32;}
	.st104{fill:#291609;}
	.st105{fill:#323438;}
	.st106{fill:#271107;}
	.st107{fill:#2B2522;}
	.st108{fill:#34141A;}
	.st109{fill:#330806;}
	.st110{fill:#453139;}
	.st111{fill:#171820;}
	.st112{fill:#271C1C;}
	.st113{fill:#433D60;}
	.st114{fill:#1A1522;}
	.st115{fill:#0D081F;}
	.st116{fill:#242220;}
	.st117{fill:#10121E;}
	.st118{fill:#281E22;}
	.st119{fill:#322F1E;}
	.st120{fill:#0E1221;}
	.st121{fill:#060E19;}
	.st122{fill:#301B09;}
	.st123{fill:#2D2220;}
	.st124{fill:#1B1C14;}
	.st125{fill:#12150C;}
	.st126{fill:#656664;}
	.st127{fill:#0F1629;}
	.st128{fill:#0A080B;}
	.st129{fill:#050203;}
	.st130{fill:#0D0D1C;}
	.st131{fill:#150706;}
	.st132{fill:#151525;}
	.st133{fill:#020206;}
	.st134{fill:#384158;}
	.st135{fill:#14130D;}
	.st136{fill:#272522;}
	.st137{fill:#494A4B;}
	.st138{fill:#6D7078;}
	.st139{fill:#34332F;}
	.st140{fill:#120D06;}
	.st141{fill:#1F1D1A;}
	.st142{fill:#313336;}
	.st143{fill:#2C1620;}
	.st144{fill:#3C3C43;}
	.st145{fill:#060605;}
	.st146{fill:#212426;}
	.st147{fill:#666F7A;}
	.st148{fill:#494D4F;}
	.st149{fill:#6F777E;}
	.st150{fill:#08080B;}
	.st151{fill:#14150D;}
	.st152{fill:#04050C;}
	.st153{fill:#121105;}
	.st154{fill:#3F434B;}
	.st155{fill:#060707;}
	.st156{fill:#28231D;}
	.st157{fill:#201910;}
	.st158{fill:#454445;}
	.st159{fill:#767C84;}
	.st160{fill:#68696D;}
	.st161{fill:#04060A;}
	.st162{fill:#02061A;}
	.st163{fill:#311308;}
	.st164{fill:#1A0C04;}
	.st165{fill:#464642;}
	.st166{fill:#3C3749;}
	.st167{fill:#181F24;}
	.st168{fill:#3D2604;}
	.st169{fill:#2D3346;}
	.st170{fill:#100809;}
	.st171{fill:#15141F;}
	.st172{fill:#45474E;}
	.st173{fill:#0E0C0C;}
	.st174{fill:#0D0F28;}
	.st175{fill:#171E28;}
	.st176{fill:#3F4D58;}
	.st177{fill:#0D0C0B;}
	.st178{fill:#2D3034;}
	.st179{fill:#707781;}
	.st180{fill:#55585B;}
	.st181{fill:#272217;}
	.st182{fill:#393D4D;}
	.st183{fill:#18192A;}
	.st184{fill:#07070B;}
	.st185{fill:#0D1109;}
	.st186{fill:#040305;}
	.st187{fill:#33160D;}
	.st188{fill:#272438;}
	.st189{fill:#393935;}
	.st190{fill:#111419;}
	.st191{fill:#030204;}
	.st192{fill:#161F34;}
	.st193{fill:#434F5D;}
	.st194{fill:#262C2A;}
	.st195{fill:#0A101E;}
	.st196{fill:#08060B;}
	.st197{fill:#030302;}
	.st198{fill:#585D63;}
	.st199{fill:#464949;}
	.st200{fill:#272A2B;}
	.st201{fill:#717880;}
	.st202{fill:#171819;}
	.st203{fill:#0D0404;}
	.st204{fill:#83817A;}
	.st205{fill:#090606;}
	.st206{fill:#190706;}
	.st207{fill:#131621;}
	.st208{fill:#0B0502;}
	.st209{fill:#1B0A05;}
	.st210{fill:#281100;}
	.st211{fill:#161012;}
	.st212{fill:#241605;}
	.st213{fill:#0C080A;}
	.st214{fill:#272E3D;}
	.st215{fill:#3B4455;}
	.st216{fill:#22190E;}
	.st217{fill:#070A13;}
	.st218{fill:#030206;}
	.st219{fill:#06090B;}
	.st220{fill:#2A2012;}
	.st221{fill:#1E2020;}
	.st222{fill:#4B2C17;}
	.st223{fill:#35291B;}
	.st224{fill:#1F1D14;}
	.st225{fill:#2E2E2A;}
	.st226{fill:#181409;}
	.st227{fill:#606160;}
	.st228{fill:#767C80;}
	.st229{fill:#201F25;}
	.st230{fill:#131C2F;}
	.st231{fill:#372C26;}
	.st232{fill:#333B5A;}
	.st233{fill:#1E1822;}
	.st234{fill:#29373B;}
	.st235{fill:#130B1F;}
	.st236{fill:#40525D;}
	.st237{fill:#28261E;}
	.st238{fill:#563314;}
	.st239{fill:#3A4B59;}
	.st240{fill:#352F31;}
	.st241{fill:#26231F;}
	.st242{fill:#4B4B4D;}
	.st243{fill:#332D1E;}
	.st244{fill:#373636;}
	.st245{fill:#040708;}
	.st246{fill:#1C2124;}
	.st247{fill:#27292E;}
	.st248{fill:#3C3A3B;}
	.st249{fill:#040306;}
	.st250{fill:#001822;}
	.st251{fill:#2D2920;}
	.st252{fill:#42444D;}
	.st253{fill:#333332;}
	.st254{fill:#29211D;}
	.st255{fill:#081629;}
	.st256{fill:#152C34;}
	.st257{fill:#060408;}
	.st258{fill:#33343F;}
	.st259{fill:#4D5056;}
	.st260{fill:#412A1D;}
	.st261{fill:#242004;}
	.st262{fill:#343130;}
	.st263{fill:#0D0E0E;}
	.st264{fill:#333A46;}
	.st265{fill:#3E4B5D;}
	.st266{fill:#505D71;}
	.st267{fill:#26271F;}
	.st268{fill:#1D1D04;}
	.st269{fill:#1F202B;}
	.st270{fill:#17191B;}
	.st271{fill:#73787F;}
	.st272{fill:#424246;}
	.st273{fill:#2C3036;}
	.st274{fill:#021B28;}
</style>
<g>
	<defs>
		<rect id="SVGID_1_" width="1117.1" height="1117.1"/>
	</defs>
	<clipPath id="SVGID_00000140725138360924383000000005849903956772922002_">
		<use xlink:href="#SVGID_1_"  style="overflow:visible;"/>
	</clipPath>
	<g style="clip-path:url(#SVGID_00000140725138360924383000000005849903956772922002_);">
		<path class="st1" d="M694.9,606c-0.8,1.1-0.8,2.4-1.2,3.6c-0.5,2.1-1.9,3.6-3.3,5.1l0-0.1c-0.8,1.6-2.2,2.8-2.8,4.6
			c-0.5,1.5-2.4,1.5-3.8,0c-1.5-1.7-2.8-3.5-3.1-5.9c0-0.9,0-1.7,1.2-2c3.7-0.9,4.3-1.9,3.6-5.6c-0.1-0.4-0.1-0.9-0.1-1.3
			c0.2-1.1,0.5-2.1,1.5-2.8c0.5-0.3,1.1-0.2,1.6-0.2c0.7,0,1.5-0.2,1.8-1c0.3-0.6,0-1.1-0.4-1.5c-0.7-0.7-1.5-0.5-2.2,0
			c-0.2,0.2-0.5,0.3-0.7,0.3c-1.1-0.1-2.4,0.1-2.8-1.4c1.3-2.5,3.8-2.5,6-2.4c2.2,0.1,3.9,1.2,4.6,3.5l0,0
			C696.3,601.3,696.5,603.6,694.9,606z"/>
		<path class="st2" d="M757.6,522l0.1-0.1l-0.1-0.1c0.3-1.1,0.6-2.2,1.1-3.3c1.1-1.2,2.1-2.4,4,0c-0.3-1.9-0.7-3.4,0.9-4.2
			c2.5-1.3,4.2,0.1,5.6,1.8c1.4,1.6,1.8,3.5,0.7,5.5c-1.7,3.3-3.8,6.3-7.1,8.2c-0.3,0.2-0.6,0.4-0.8,0.7c-2.1,2.3-3.3,2.2-4.5-0.7
			C756.4,527.3,756.2,524.6,757.6,522z"/>
		<path class="st3" d="M577.5,576.1c-0.2,0-0.4,0-0.5,0c-1.6,1-3.4,1.1-5.1,1.4c-1.9,0.4-2.5-0.6-2.5-2.2c0-4.1,6.3-9,10.3-8.1
			c1.3,0.3,2.2,1.2,2.7,2.5c-0.1,0.2-0.1,0.3,0.1,0.4c0.6,1-0.2,1.5-0.6,2.1l0,0c-0.8,1.5-1.9,2.7-3.5,3.3
			C578.1,575.6,577.8,575.8,577.5,576.1z"/>
		<path class="st4" d="M277,435.9l-0.1-0.2l-0.2,0c-1.6-0.4-2.4-1.6-2.6-3.1c-0.2-2.7-0.5-5.4,1.2-7.8c2.8-5,1,0.8,1,1.5
			c0,1-0.3,2-0.4,3.4c2.8-3.5,4.4-7,4-11.2c0-1.4,0.4-3,1.9-3.1c2-0.2,3.1,1.4,3.7,3.1c-0.4,2.2-1.6,4.1-2.3,6.1
			c-1.2,3.1-1.7,6.7,0.5,9.9C281.8,437,279.1,437.5,277,435.9z"/>
		<path class="st5" d="M765.7,509.4c-0.2,0-0.4,0-0.5,0c-3.6-0.6-5.4-3.4-4.8-7.8c0.3-2.5,1.1-4.9,2.8-6.9l-0.1,0.1
			c0.9-1.6,1.8-3,4-2.2c1.3,2.7,1.2,3-1.6,3.6c-0.1,0.2-0.3,0.3-0.4,0.5c-0.2,0.4-0.4,0.8-0.5,1.2c-0.2,0.6-0.2,1.2-0.3,1.8
			c-0.1,0.6-0.4,1.2-0.2,1.9c0.7,0.5,1.5-0.4,2.2,0.2c0.2,0.1,0.4,0.3,0.6,0.5c0.3,0.3,0.3,1.5,1.2,0.4c0.3-0.4,0.8-0.2,1.2,0
			c0.2,0.3,0.3,0.7,0.3,1.1c-0.2,1.2-1.3,2-1.3,3.3C767.7,508.4,767.3,509.6,765.7,509.4z"/>
		<path class="st6" d="M250.2,583.6c-0.5,0.2-0.5,0.6-0.5,1c-0.3,0.5-0.2,1.4-1,1.6c-0.7,0.1-1.3-0.1-1.6-0.8
			c-0.6-1.3-1.6-0.8-2.5-0.7c-1.5-0.7-3-1.3-4.8-0.5c-1.1,0.4-2.5,0-3.3-1.2c2.5-2.6,5.3-4.5,9.2-4.3c0.5,0,1.1-0.1,1.6-0.3
			c1.2-0.3,2.7-1.2,3.3,0.3C251.3,580.2,252,582.1,250.2,583.6z"/>
		<path class="st7" d="M764.6,480.6c0.1,0,0.2,0,0.4,0c1.3,1.9,1.2,4.3,1.8,6.4c0.5,1.6-1.2,1.6-2.2,1.5c-2.8-0.2-5.2-1.5-7.1-3.6
			l0,0c-0.4-0.3-0.8-0.6-0.8-1.1c-0.5-1.8-1.7-3.2-2.6-4.7c-0.6-1-1.2-2.1-0.7-3.3c0.5-1.1,0.6-2.8,2-3c1.6-0.3,1.7,1.5,2.4,2.5
			c0.6,1.9,3.2,2.7,2.7,5.2c-0.7,0.6-1.3-0.3-2.1-0.1c1,1.8,2,3.4,3.9,4.9c-0.2-1.3-1-1.8-1.4-2.5c-0.5-0.7-1.3-1.4-0.4-2.3
			c1.9,0.2,3.1,1.2,3.8,2.8C764.2,482.6,763.6,481.4,764.6,480.6z"/>
		<path class="st8" d="M675.7,489.8c-0.4-0.2-0.7-0.3-1.1-0.5c-1.3-0.8-1.9-2-2.6-3.3c0-0.4,0.1-0.8,0.3-1.1c1.3-0.3,2.7-0.3,3-2.1
			c0.1-0.5,0.6-0.9,1.1-1.1c2.6-1.3,3.5-3.4,2.8-6.3c-0.3-1.3-0.9-2.6,0.6-3.6c0.5,0.2,0.7,0.5,0.8,1c0.9,4.3,1.9,8.6-0.2,12.9
			c-0.3,0.6-0.1,1.2-0.2,1.9C679.9,490.2,678.5,491,675.7,489.8z"/>
		<path class="st9" d="M267.6,534.5l-0.2,0l-0.2,0c-0.2,0.2-0.4,0.2-0.7,0c-0.5-1.3-1.1-2-2.7-1.7c-2.8,0.6-4.4-1.5-6-3.3
			c-0.2-0.2-0.3-0.4-0.4-0.7c-1.1-2.1-1.7-4.4-2.8-6.6c-0.3-0.6-0.4-1.2-0.1-1.8c1.5-0.7,3.3-0.3,3.7,1.1c1.4,5,5.3,7,9.6,8.6
			c0.7-0.9,0.1-1.9,0.2-2.8c0-0.8-0.5-1.8,0.8-2.2C270.8,528.5,270.3,532.4,267.6,534.5z"/>
		<path class="st10" d="M760.2,480.6c-0.4-2.1-2.6-3-3.3-4.9c0.3-3.2,0.9-3.5,3.6-2c0.5,0.3,1,0.1,1.5,0.2c1.7,1.3,1.9,3.4,2.4,5.2
			c0,0.5,0,1.1,0,1.6c0,1.1,0,2.1,0,3.3C763,482.7,761.6,481.6,760.2,480.6L760.2,480.6z"/>
		<path class="st11" d="M713.9,437.6c-0.2,0.7,0.5,1,0.6,1.6c0.2,0.2,0.4,0.5,0.2,0.7c-2.6,3.9-7.1,5.6-11.5,4.2
			c-1.6-0.5-3.3-0.8-4.9-1.3c-0.5-0.3-0.8-0.7-0.8-1.4c1.6-1.7,3.5-2.1,5.6-1.2c1.6,0.7,2.9,0.6,4.4-0.7c1.6-1.3,3.9-1.2,5.8-2.2
			C713.5,437.3,713.7,437.3,713.9,437.6z"/>
		<path class="st12" d="M684.4,597.8c0.7,0.9,2,0.5,2.7,1.2c0.8,0.9,0.9,1.8,0,2.7c-0.4,0.9-0.7,1.8-1.1,2.7
			c-0.6,0.8-0.1,1.5,0.1,2.3c0.5,1.7-0.4,3-1.7,3.9c-0.8,0.6-1.8,0.2-2.4-0.5c-1.1-1.3-1.6-2.9-0.3-4.1c1.9-1.9-0.7-3-0.4-4.6
			c0.2-1,0.6-1.7,1.4-2.4c0.2-0.2,0.4-0.4,0.6-0.6C683.7,598,683.9,597.6,684.4,597.8z"/>
		<path class="st13" d="M584.1,498.4c-0.7-0.9-0.1-1.5,0.5-2c1-0.4,1.4-1.9,2.8-1.7c0.5,0.3,0.8,1.5,1.4,0.9c2.1-2.2,5-1.2,7.4-2.2
			c0.3,0.1,0.5,0.2,0.7,0.4c-0.6,2.8-3.9,5.6-7,5.7c-1.4,0-2.7,0.3-4,0.6C584.8,499.9,584.4,499.2,584.1,498.4z"/>
		<path class="st14" d="M698.1,442.4c2.5-0.6,4.5,1,6.8,1.3c2.7,0.4,5.3,0.2,6.4-2.6c0.7-1.6,2.7-0.4,3-2c0.8,0.5,0.4,1.3,0.5,2
			c-0.7,2.5-2.9,4-5,4.3c-3.2,0.5-6.7,0.9-9.6-1.4l0,0C699.6,443.4,698,444,698.1,442.4z"/>
		<path class="st15" d="M768.8,504c0-0.3,0-0.7,0.1-1c-0.6-1.2-2.1,1-2.6-0.6l0,0c-1.9-1.1-3.2-2.5-2.2-4.9c0.2-0.4,0.4-0.7,0.6-1.1
			c0.8,0.6,0.7,1.6,1.4,2.5c-0.4-1.1-0.5-2.1-1.4-2.5c0-0.7,0.3-1.6,0.9-1.4c3.1,1,1.3-1.1,1.3-2c0.4-0.2,0.7-0.2,0.9,0.2l-0.1-0.1
			c0.9,1,0.1,2.4,0.6,3.4c-0.2,0.6,0.3,1,0.6,1.4c0.7,2.2,1.4,4.4,0.3,6.7C768.9,504.6,768.7,504.4,768.8,504z"/>
		<path class="st16" d="M231.2,447.8c1.2,1,1.4,2.6,2.2,3.8c1.4,2.9-0.2,5.6-0.6,8.4c-0.5,1.4-1.2,2.6-2.3,3.6
			c-0.3,0.3-0.6,0.6-1,0.9c-0.5,0.4-1,0.9-1.5,1.3c-0.5-0.4-0.6-1.1-0.2-1.5c2-2.2,1.8-5.3,3.4-7.6c0.3-2.2,1.6-4.3-1.2-6.1
			C228.4,449.8,229,448.5,231.2,447.8z"/>
		<path class="st17" d="M727.5,443.5c0.2,0,0.3,0,0.5,0c0.5,0.2,0.9,0.6,1.3,1c2.1,1.8,1.8,4.4,1.9,6.7c0.1,1.7-1.3,2.2-2.9,2
			c-0.3,0-0.5-0.1-0.7-0.3c-0.2-0.2-0.2-0.5-0.2-0.7c0.3-0.6,1.3-1.2,0.3-2c-2.2-2-1.2-4.5-1.3-6.9
			C726.8,443.2,727.2,443.2,727.5,443.5z"/>
		<path class="st18" d="M257,530.6c-0.4-0.9-0.8-1.7-1.2-2.6c0.2-1.2,0.6-1.8,1.5-0.3c0.2,0.5,0.3,1,0.7,1.4l0,0
			c0.8,1.2,1.8,2.2,2.9,3.1c0.5,0.5,1.2,1,1.9,0.6c1.9-0.9,3.1,0.1,4.1,1.5l0.2,0c0,0,0.1,0.1,0.1,0.1c0,0.1,0.1,0.3,0,0.4
			c-1.4,1.1-2.9,0.8-4.3,0.1c-1,0-1.9-0.4-2.7-1C258.7,533.3,257.6,532.2,257,530.6L257,530.6z"/>
		<path class="st19" d="M349,378.6c-0.3,0.4-0.6,0.9-1,1.2c-0.5,0.4-1.2,0.6-1.7,0.2c-0.7-0.7,0.1-1.2,0.5-1.5
			c1.1-0.9,1.7-2.4,3.4-2.6c0,0.1,0.1,0.2,0.1,0.3C350.4,377.3,348.7,377.4,349,378.6z"/>
		<path class="st19" d="M350.1,375.8c0.4-0.4,0.7-0.8,1.1-1.1c0.6-0.4,1.4-0.8,1.8,0.1c0.5,0.9-0.3,1.2-0.9,1.6
			c-0.3,0.2-0.6,0.3-1,0.5C350.7,376.7,350.4,376.3,350.1,375.8L350.1,375.8z"/>
		<path class="st20" d="M751.1,461.9c0.2,0,0.3,0.1,0.4,0.2c0,0.4-0.1,0.8,0.3,1.1c1,0.9,0.4,2,0.4,3.1c-0.2,0.2-0.4,0.3-0.7,0.3
			c-0.3-0.3-0.5-0.6-0.6-1c-0.1-1-0.6-2-0.3-3C750.7,462.2,750.8,462,751.1,461.9z"/>
		<path class="st19" d="M233.9,456.6c0-1.5,0-2.9,0-4.4"/>
		<path class="st21" d="M768.4,507.2l-0.2,0.1l-0.3,0c0-1.2,0.4-2.2,0.9-3.2c0.1,0.2,0.1,0.4,0.2,0.6c0,0.4,0,0.7,0,1.1
			C768.7,506.1,768.2,506.5,768.4,507.2z"/>
		<path class="st20" d="M750.9,467.8c-0.3,0.1-0.6,0.2-0.9,0.3c-0.4-1.3,0.3-1.7,1.4-1.8c0.1,0.1,0.2,0.1,0.3,0.2
			c-0.1,0.3-0.2,0.6-0.4,0.9C751.2,467.5,751,467.7,750.9,467.8z"/>
		<path class="st22" d="M528.5,503.5c0.5,0,0.9,0.1,1.4,0.1c2.2,0.7,3.7,2.2,5.2,3.7l0,0c2.4,0.8,2.5,1.1,0.8,3.2
			c-1,0.3-1.8,1.2-3,1.2c-1.2,0.4-2.2,0.6-2.6-1.1c-0.3-1.1-1.4-1.3-2.3-1.4c-1-0.2-2.1-0.2-2.9-1.1c-0.6-1.1-1.2-2.1-2.8-1.7
			c-0.8,0.2-1.3-0.4-1.2-1.3c0.1-0.3,0.2-0.5,0.3-0.8C523.5,502.4,526,502.9,528.5,503.5z"/>
		<path class="st23" d="M521.5,438.7c2.2-0.9,4.6-0.8,7-1.1c0.2,0,0.4,0,0.5,0c3.2-0.3,5.8,1.5,8.7,2.3c1.4,0.4,1.3,1.8,0.7,3
			c-0.9,1.8-2.4,2.8-4.3,3.3c-0.3,0-0.5-0.1-0.7-0.3c-0.6-3.3-3.6-6.3-6.5-6.4c-0.3,0-0.5,0-0.8,0c-1.7-0.4-3.3,1-5,0.5
			C520.5,439.2,520.8,438.9,521.5,438.7z"/>
		<path class="st24" d="M525.6,604.9c-1,0-1.9,0-2.9,0c-1.7-0.7-3.9,0.5-5.3-1.4c1.4-2,3.1-1.1,4.8-0.7c1.3,0.1,0.9-0.7,0.8-1.5
			c-0.2-1.4-0.6-2.9,0.4-4.2c1.5,0.4,5.2,4.2,5,5.4C528.3,604.3,526.9,604.5,525.6,604.9z"/>
		<path class="st25" d="M534.1,595.7c0.3-0.9,0.7-1.7,1-2.6c1.5-3.1,3.9-4.8,7.3-5c1.2,0.6,1.2,1.6,0.8,2.7
			c-1.8,1.2-3.6,2.3-5.4,3.4c-0.4,0.3-0.8,0.6-1,1.2c0,0.7,1,0.8,1,1.5c-1.2,1.9-2.9,0-4.2,0.6C533.5,596.9,533.4,596.2,534.1,595.7
			z"/>
		<path class="st26" d="M525.2,507.8c1,0.6,2.1,0.4,3.1,0.6c1.4,0.3,3.2,0.3,3,2.7c-0.1,1,1.1,0.3,1.6,0.6c-3,1.1-6,1.1-8.8-0.6
			c0-1.1,0-2.2-0.6-3.2C524,507.3,524.6,507.3,525.2,507.8z"/>
		<path class="st27" d="M522.5,447.8c-0.4-0.3-0.8-0.7-1.1-1c0.4-0.5,0.9-0.5,1.5-0.5c2.2,0.3,4.3,0.7,6.3-1
			c1.2-1.1,2.9-0.8,3.8,1.1c-0.7,1-2,0.8-2.9,1.5c0,0,0,0,0,0c-0.9,0.8-2,0-3,0.6c-0.6,0-1.3,0-1.9,0
			C524.2,448.4,523.3,448.2,522.5,447.8L522.5,447.8z"/>
		<path class="st28" d="M522,510c0-0.2,0-0.3,0-0.5c0.3-0.7,0.6-1.4,1.6-1.1c3.8,0.2,0.8,1.8,0.5,2.8
			C523.2,511.1,522.8,510.2,522,510z"/>
		<path class="st29" d="M512.5,598.6c-1.3-2,0.1-3.2,1.3-4.5c1.6,0,3.2,0,4.8,0c0.1,0.1,0.1,0.3,0.2,0.5c-0.1,0.2-0.2,0.4-0.4,0.4
			C515.8,595.1,514,596.6,512.5,598.6z"/>
		<path class="st30" d="M521.3,505c-0.1-1,0.8-1.4,1.3-2c2-0.7,3.9-0.4,5.9,0c0,0.1,0,0.3,0,0.4C526,503.6,523.3,502.9,521.3,505z"
			/>
		<path class="st19" d="M522.5,447.8c0.9,0.2,1.8,0.4,2.7,0.6C524.1,449.2,523.3,448.4,522.5,447.8z"/>
		<path class="st19" d="M527.1,448.3c0.9-0.4,1.9-0.6,3-0.6C529.2,448.8,528.1,448.3,527.1,448.3z"/>
		<path class="st31" d="M442.3,492.5c0.2,0.1,0.3,0.2,0.5,0.3c0.2,0.2,0.4,0.6,0.2,0.7c-1.8,1.4-3.6,3.3-5.7,3.9
			c-1.9,0.6-4,0.8-6,0.7c-0.3-0.2-0.6-0.4-0.9-0.7c0-0.2-0.1-0.4-0.1-0.5c-0.4-0.8,0-1.2,0.6-1.6c0.3,0,0.5-0.2,0.6-0.5
			c1.7-1.7,3.3-3.7,6.1-3.8l0,0c1.6-0.9,3-0.3,4.3,0.7C441.7,492.1,441.6,492.5,442.3,492.5z"/>
		<path class="st32" d="M379.9,510.5c-2.9,0.8-5.7,1-8.6,0c-0.4-0.3-0.9-0.6-1.2-1.1c0.1-0.5-0.3-0.2-0.4-0.2
			c-0.6-0.1-1.1-0.6-1.8-0.6c-0.4-0.1-0.6-0.4-0.6-0.8c0.3-0.6,0.7-1.1,1.2-1.5c0.7-0.5,1.5-0.7,2.3-0.6c2.4,1,5.4,0.5,7.4,2.9
			c0.8,0.9,2.3-0.5,3.4,0.3C382.1,510.4,380.7,510.1,379.9,510.5z"/>
		<path class="st33" d="M368.3,508.9c0-0.2,0-0.3-0.1-0.5c0.7,0.2,1.4,0.4,2,0.6l0,0c0.4,0.5,0.7,1.1,1.1,1.6
			C370.1,510.4,369.3,509.4,368.3,508.9z"/>
		<path class="st34" d="M391,587c0,0.2,0.1,0.3,0.1,0.5c-0.3,2.3-0.9,4.5-3.1,5.7c-1.9,3.8-4.9,4.8-8,2.5c0-1.2,0.2-2.3,0.9-3.3
			C383.3,588.9,386.3,586.5,391,587z"/>
		<path class="st35" d="M361.6,601.7c-0.5-0.4-1.1-0.7-1.6-1.1c-0.4-0.3-0.4-0.6-0.2-1c3.1-0.5,4.8-3,6.8-5.1c2.7,1.5,3,4.4,3.4,6.9
			c0.3,2-2,2-3.6,2.1C364.5,603.2,362.8,603,361.6,601.7z"/>
		<path class="st19" d="M374.7,601.7c0,0-0.1-0.1-0.1-0.1c-0.5-0.2-1.1-0.3-1.4-0.8c-1.5-2.6-4.4-3.9-5.7-6.7l0.1-0.1"/>
		<path class="st36" d="M428.6,568.5c-0.1,0.1-0.1,0.3,0,0.4c-0.1,2.2-1.6,3.4-3.1,4.6c-1.9,0.7-1-1.6-2.2-2.2
			c-1.7-0.9-2.8-1.1-3.9,0.5c-0.4,0.4-0.9,0.8-1.2,1.3c-0.8,0.8,0.5,3.9-2.5,2.2c0.1-5,3.7-7.3,7.5-9.3
			C425.7,565.3,427.5,566.2,428.6,568.5z"/>
		<path class="st37" d="M415.7,575.5c0.6-0.2,2,0.6,1.2-1.2c-0.2-0.5,0.3-1.2,0.8-1.6c1,0.5,2.1,0.6,3.3-0.1
			c-0.7-0.6-1.8-0.3-2.2-1.1c1-1,2-2,3.1-3c1.4,2.5,1.4,2.5,3.7,2.4c0.8,0.9-1.8,1.2-0.4,2.2c0.4,1.3-0.9,1.1-1.4,1.3
			c-0.9,0.4-1.9,0.5-2.8,0.8l0.1,0c-0.8,0.8-2,0-2.8,0.6C417.2,576.6,416.2,576.9,415.7,575.5z"/>
		<path class="st38" d="M681.1,613.3c-1.4-4.2-1.2-8.2,0.8-12.2c0.6,0.6,0.3,1.7,1.2,2.3c1.2,1,1.9,2.2-0.5,2.6
			c-0.9,0.2-0.9,1.1-0.7,1.8c0.2,1,0.5,2,1.5,2.3c0.8,0.3,1.3-0.4,1.8-0.9c1.8-1.4-0.4-3.5,0.9-5c0.3,2.1,1.3,4.3-0.6,6.1
			c-0.9,0.9-1.6,2.3-3.3,1.6C680.6,611.5,681.5,612.9,681.1,613.3z"/>
		<path class="st39" d="M687.2,601.7c0-0.9,0-1.8,0-2.7c0.2-1.4,1.1-1.9,2.3-1.5c1.1,0.4,2,1.3,2,2.6c0,1.3-1,1.6-2,2
			C688.7,602.4,687.9,602,687.2,601.7z"/>
		<path class="st40" d="M759.1,518.7c0.8-2,2.3-3.2,4.4-3.8c0,0.6-1.4,1-0.3,1.8c0.9,0.6,0.8,1.3,0.1,2c-0.4,0.4-0.8,1.2-1.5,0.9
			c-0.8-0.3-0.2-1.3-0.7-1.9C760.2,517.5,760,518.6,759.1,518.7z"/>
		<path class="st41" d="M765.5,516.3c0.9,0.4,1.9,0.7,1.7,1.9c-0.1,0.8-0.8,1.2-1.6,1.1c-1.2-0.1-1-1-1-1.8
			C764.6,516.8,764.7,516.2,765.5,516.3z"/>
		<path class="st42" d="M757.3,549.8c-1.9,3.9-4.7,5.3-7.8,4c-0.8-0.3-1.7-0.6-1.8-1.7c-0.4-0.7-0.2-1.6-0.6-2.3
			c-0.3-0.5-0.2-1.2,0.5-1.2c3.3,0.2,3.5-2.8,4.9-4.6c0.1-0.2,0.3-0.4,0.5-0.6c1.1-1,2.1-2.4,3.9-2.4c1.6,1.9,0.5,4.1,0.6,6.2
			C757.5,548,757.1,548.9,757.3,549.8z"/>
		<path class="st43" d="M756.4,541.1c-0.8,1.2-2.2,1.8-3.3,2.7c-0.6-1.8,1.1-2.9,1.2-4.5c-0.2,1.6-1.8,2.7-1.2,4.5
			c-0.6,1.3-1.2,2.5-1.8,3.8c-0.8,1.7-2.1,2.2-3.9,1.6c0.1,1,0.1,2,0.2,2.9c-1.9-3.6-0.8-7,1.1-10.1c1.7-2.9,3.6-5.8,7.1-6.9
			C757.6,537,757.4,539,756.4,541.1z"/>
		<path class="st44" d="M756.4,541.1c-0.2-2,0-4-0.5-6c0.6-0.2,1.2-0.4,1.8-0.5c1.8-0.2,2.9,0.1,2,2.3c-0.9,2.4-0.4,5-0.7,7.5
			c-0.2,1.9-0.4,3.8-1.7,5.3c-1.8-1.9-0.1-4.1-0.5-6.2C756.7,542.8,757.2,541.9,756.4,541.1z"/>
		<path class="st45" d="M358.9,487.1c-0.8,1.3-2.3,1.7-3.4,2.6c-1.8,0.2-2.9-0.4-3.2-2.4c-0.4-2.4-1-4.8-1.1-7.2
			c-0.3-4.2,2-7,5.2-9.2c2-1.4,4.5-0.5,6.8,2.1c0.2,1.1,0.4,2.2,0.7,3.2c-1.8,1.8-1.8,4.7-4.2,6.2c-1.2,0.7-2.2,1.8-3.8,1.9
			c-1.7,0.1-2.2,1.2-1.7,2.7c0.5,1.8,1.6,0.8,2.6,0.4C357.4,487,358.1,486.4,358.9,487.1z"/>
		<path class="st46" d="M355.4,460.5c-1.3-3.3-2.4-6.6-1.1-10.2c1.3-3.7,4.2-4.7,7.4-2.5c-0.3,0.5-1,0.3-1.4,0.8
			c3.2,2.6,4.2,5.7,1.9,9.5c-0.8,1.3,0,3.1-0.9,4.4c-0.2,0.2-0.5,0.2-0.7,0.2c-0.2-0.2-0.4-0.4-0.5-0.6c-0.3-2.4-0.7-4.8,0.5-7.1
			c0.6-1.1,0.3-2.2-0.7-2.5c-1.3-0.4-1.8,0.8-1.9,1.8c-0.2,1.8,0.1,3.6,0,5.4c-0.1,0.9,0.1,2-0.9,2.3
			C356,462.3,356.2,460.7,355.4,460.5z"/>
		<path class="st47" d="M361,462.6c0.2-2.3-0.2-4.6,1.4-6.9c1.1-1.7,0.1-4.1-1.7-5.8c-0.7-0.7-2.6-0.7-2.1-2c0.6-1.5,2,0.1,3.1-0.1
			c4.1,3.2,3.5,7.6,2.7,11.8c-0.3,1.8-1,3.4-0.6,5.3c0.2,0.8,0,1.7-0.8,2.2c-0.8,0.6-1.5,0.1-2.1-0.6
			C359.1,465.2,359.9,463.9,361,462.6z"/>
		<path class="st48" d="M361,462.6c0.3,1.3-1.3,2.6,0,3.9c-2.6-1.3-4.9-3-5.6-6c0.5,0.3,1,0.6,1.9,1.2c-0.1-2.3-0.1-4.5-0.4-6.5
			c-0.1-1-0.1-1.8,0.7-2.4c0.8-0.6,1.1-3.1,2.7-1.3c0.9,1,3.1,2.2,0.8,4.4c-1.6,1.6-0.3,4.2-0.6,6.3c-2.1-0.4-0.7-2.3-1.4-3
			c0.5,1-1,2.9,1.4,3.5C360.7,462.6,360.8,462.6,361,462.6z"/>
		<path class="st49" d="M507.2,490.4c-1.8-2.7-1.7-5.9-2.1-9c-0.1-1,0-2,0-3c1.6-2.7,2.8-5.9,6.5-6.7c1.3,1.5,3.6,1.8,4.6,3.9
			c0.6,1.3,0.6,2.2,0,3.5c-1.5,3.7-4.6,5.5-8,7C507.1,487.5,508.6,489.3,507.2,490.4z"/>
		<path class="st50" d="M517.6,451.6c1.5,2.8,1.3,5.8,0.8,8.7c-0.4,2.1-1.2,4.1-0.7,6.4c0.1,0.5-0.1,1.1-0.7,1.4
			c-2,0.1-3.2-0.5-3-2.7c0.1-0.9,0-1.8,0-2.6c0.1-2.1-0.3-4.3,1.2-6.1c0.1-0.9-0.1-1.8-0.2-2.8c-0.1-1.6-1.3-2-2.4-2.6
			c-1-0.5-2-1.4-1.3-2.5c0.6-1,1.7-0.6,2.7-0.2C515.6,449.1,516.5,450.5,517.6,451.6z"/>
		<path class="st51" d="M515.9,453.8c0,1,0,1.9,0.5,2.7c-3,1.1-1.5,3.9-2,5.9c-1.2-0.5-1.2-0.5-1.4-2.6c-0.1,2.8-0.1,2.8,1.2,2.8
			c0.2-0.2,0.4-0.2,0.6,0c0,0.8,0.2,1.7,0,2.4c-0.5,2.1,0.5,2.8,2.3,3c-0.3,0.7-0.9,0.7-1.3,0.4c-2.7-1.8-5.7-3.4-6.5-7
			c1.1-0.9,1-2,0.8-3.2c-0.3-1.4-0.3-2.9,0.3-4.3c0.5-1.3,1.1-2.7,2.7-2.8C514.6,451.1,515.4,452.4,515.9,453.8z"/>
		<path class="st52" d="M515.9,453.8c-1-0.9-1.6-3-3.3-1.9c-1.6,1-2.3,3-2,5c0.2,1.2,0.4,2.5,0.5,3.7c0.1,2-0.8,1.5-1.8,0.9
			c-1.1-2.8-2-5.6-1.4-8.6c0.7-4,4.3-7.2,8.7-3.4l0,0c0.4,0.7,0.8,1.4,1.2,2.2c-1.6-0.6-2.2-2.4-3.8-2.9c-0.8-0.2-1.7-0.7-2.1,0.4
			c-0.3,0.9,0.4,1.2,1.2,1.5C514.5,451.1,516,451.7,515.9,453.8z"/>
		<path class="st53" d="M507.2,490.4c0-1,0.1-1.9-0.3-2.9c-0.3-0.8-0.1-1.4,0.8-1.5c3.7-0.2,6-2.3,7.5-5.5c0.5-1.2,0.8-2.7,2.4-3.2
			c0,0.5,0,1.1,0,1.6c-0.4,2.3-1,4.7-2.2,6.7c-1.3,2.2-3.3,3.7-5.6,4.8C509,490.9,508,491.4,507.2,490.4z"/>
		<path class="st54" d="M517.6,477.3c-1,0.8-1.4,1.9-1.6,3c-0.9,3.5-3.7,5-6.5,6.6c-0.8,0.5-1.6,0.2-1.8-0.9c0-0.9,0.3-1.5,1.3-1.6
			c3.2-0.5,6.5-3.7,7.1-6.6c0.2-1.1-2.4-4.1-3.7-4.3c-0.7-0.1-1.4,0.3-2-0.3c0-0.8,1-0.8,1.1-1.4
			C515.2,471.4,516.6,472.7,517.6,477.3z"/>
		<path class="st54" d="M515.4,485.7c0.7-2.2,1.5-4.5,2.2-6.7c0.6,2.2-0.9,4-1.2,6C516.1,485.1,515.8,485.4,515.4,485.7z"/>
		<path class="st55" d="M674.8,439c-1.3-3.6,0.6-5.6,3.8-5.8c3.1-0.2,5.9,0.7,8.5,2.3c0.8,0.5,1.5,1,2.3,1.4
			c0.9,0.4,1.8,0.9,1.8,2.1c0,1.1-0.9,1.5-1.7,1.9c-3.3,1.5-6.5,2.4-10.2,1.4C677.1,441.8,676.2,440.1,674.8,439
			C674.8,439,674.8,439,674.8,439z"/>
		<path class="st56" d="M675.2,445.7c1.6,2.1,2.2,4.4,1.7,7c-0.6,0.6-0.5,1.7-1.5,2.3c-1.2-0.9-0.9-2.4-1.1-3.6
			c-0.2-1.2-0.7-1.3-1.6-0.6c-1.6,1.3-1.4,3.3,0.6,4.3c1.4,0.7,1.8,1.4,0.8,2.6c-2.9,1.2-5.5,0-6.3-3.3c-0.7-2.8-0.3-5.6,1.8-7.8
			c1,1.4-0.2,2.5-0.3,3.8c-0.1,1.1-0.5,2.3-0.6,3.2C669.4,450,669.4,450,675.2,445.7z"/>
		<path class="st57" d="M675.2,445.7c-0.2,0.9-0.4,1.9-1.4,2.2c-3.3,0.9-4.3,3.5-4.8,7c-1.4-3.3,0.2-5.7,0.7-8.3
			c0.1-0.9,0.8-1.4,1.4-1.9C673.4,442.6,674.3,442.8,675.2,445.7z"/>
		<path class="st58" d="M674.1,457.7c-0.1-0.7,0.6-1.6-0.9-1.8c-1.1-0.2-2.4-0.3-2.5-2c-0.1-1.7,0-3.3,1.9-4.1
			c0.5-0.2,1-0.7,1.5-1.1c0.7,0.9,0.9,1.8,0.9,2.8c0,0.9,0,1.8,0,2.8c1.1,0,0.9-1.3,1.7-1.5C676.7,454.9,675.7,456.5,674.1,457.7z"
			/>
		<path class="st59" d="M227.4,494.8c-4.4-4.5-5.9-9.9-5-16c0.1-1,0-2-0.2-3c-0.2-1.4,0-2.6,1.3-3.2c1.3-0.6,2.4-0.3,3.3,0.9
			c-0.7,0.5-2.5,0.6-0.7,2c2.3,1.8,1.9,4.8,2.8,7.2c0.7,1.9,1.1,3.7,3.3,4.6c1.6,0.7,1.6,2.7,2.4,4.1c0.1,0.5-0.1,1.1-0.5,1.2
			C231.8,493,230.2,495.6,227.4,494.8z"/>
		<path class="st60" d="M234.4,491.5c-0.5-0.1-1-0.2-1.1-0.7c-0.4-1.9-1.6-2.7-3.3-3.7c-2.4-1.4-1.9-4.6-2.7-7.1
			c-0.4-1.4-0.4-3-1.9-3.9c-1-0.6-2-1.6-1.6-2.6c0.6-1.4,1.9,0.1,2.9,0c4.6,2.8,8.1,6.5,9.1,12.1c0.4,2,0.4,3.7-0.8,5.4
			C234.9,491.1,234.8,491.5,234.4,491.5z"/>
		<path class="st61" d="M234.4,491.5c0.2-0.2,0.5-0.3,0.7-0.5c-1,4-4,5.5-7.7,3.8c2-0.1,3.4-0.9,4-3.1
			C232.6,493,233.7,493.4,234.4,491.5z"/>
		<path class="st62" d="M860.7,490c-0.4,1.2-0.8,2.4-1.2,3.7c-1.7,2.8-4.3,2.8-7.1,2.1c-2.9-3-4.4-6.7-5.2-10.8
			c-0.6-3.4,0.6-6.6-0.1-10c-0.1-0.7,0.4-1.6,1.4-1.7c0.2,0.2,0.3,0.4,0.4,0.6c0,0.3,0,0.5,0,0.8c0.2,2.3,0,4.7-0.2,7
			c-0.4,3.7,1,7.1,2.8,10.2c0.3,0.3,0.5-0.2,0.2,0c0,0-0.1,0-0.2-0.2c-1.9-2.1-1.7-4.9-2.6-7.3c-0.4-0.9,0.3-1.9,1.2-2.6
			c1-0.8,1.9-0.2,2.7,0.5c0.4,0.4,0.7,0.8,0.8,1.3c-0.1,3.7,1.9,6.1,5,7.7c0.7-0.4,0.9-1.4,1.7-1.7
			C860.4,489.7,860.6,489.8,860.7,490z"/>
		<path class="st63" d="M848.6,474c0-0.2,0-0.5-0.1-0.7c0.8-0.8,1.7-0.5,2.4,0c5.2,3.4,9.4,7.6,10.2,14.1c0.1,0.9,0.4,1.8-0.4,2.5
			c-0.1-0.1-0.1-0.2-0.2-0.2c-0.6-0.5-0.7-1.2-0.8-1.9C858.6,481.1,854.3,477,848.6,474z"/>
		<path class="st64" d="M689.8,566.5c-0.9,2,0.3,4.1,0.7,6.3c0.8,4.3,1.1,8.7-2,12.4c-3.2,3.9-7.7,3.2-9.7-1.4
			c-2-4.8,0.4-14,4.6-17.2c1-0.8,2-1.5,3.1-2.2c0.7-0.5,1.4-1,2.2-0.5C689.6,564.4,689.9,565.2,689.8,566.5z"/>
		<path class="st65" d="M576.8,573.5c-0.9,1.1-1.9,1.3-2.9,1.6c-0.7,0.2-1.4,0.6-2,0c-0.2-0.2-0.2-0.7-0.1-0.9
			c0.4-0.8,1.1-1.2,1.9-1.2C574.7,573,575.6,573.3,576.8,573.5z"/>
		<path class="st66" d="M679,555.9c-0.5-0.6-1.2-1.2-1.2-2.1c-0.7-1.6-0.5-2.8,1.2-3.9c1.4-0.9,2.1-2.3,1.3-4.2
			c-0.7-1.5-0.8-3.1-1.3-4.7c-0.7-2.3-1.1-4.6,0.7-6.7c-0.8-0.6-1.7,0.5-2.4-0.4c0.4-1.4,1.4-2.5,2.5-3.6c1.7-0.8,3.5-0.8,5.2-0.1
			l0,0c2,1.3,2.1,3.5,2.4,5.4c0.2,1.8,0.3,3.7,0.1,5.6c-1,3.4-1.1,7.1-2.9,10.3c-0.2,0.4-0.4,0.7-0.5,1.1
			C682.3,555.7,681.4,556.3,679,555.9z"/>
		<path class="st67" d="M676.7,550.5c-2.3-5.5-2.2-11,0.1-16.5c1.4,0.8,2.1,1.6,1.8,3.6c-0.3,2.1,0.8,4.2,1.3,6.2c1,3.7,1,3.7-2.1,6
			C677.5,550.1,677.2,550.4,676.7,550.5z"/>
		<path class="st68" d="M676.7,550.5c0.1-0.8,0.2-1.6,1.2-1.9c2.2-0.6,2.2-2,1.7-4c-0.7-2.7-2.3-5.4-1.3-8.4
			c0.1-0.3,0.1-0.9-0.4-0.7c-1.9,0.6-0.7-1.1-1.1-1.6c0.3-1.4,1.2-2.4,2.3-3.2c0.3-0.3,0.4-0.2,0.5,0.1c-0.6,0.9-1.3,1.7-1.9,2.7
			c0.3,0.1,0.5,0.2,0.6,0.1c0.9-0.2,0.8-2.4,2.1-1.3c0.7,0.6,0.5,2.1-0.3,3c-1.2,1.2-1.1,2.5-0.6,4c0.7,2.3,1,4.8,1.9,7
			c0.7,1.8-0.5,3.7-1.6,4c-2.2,0.6-1.7,2-1.9,3.3C677.1,552.8,676.7,551.7,676.7,550.5z"/>
		<path class="st69" d="M684.5,551.5c1.1-3.3,1-6.8,2.6-10c0.6,0.8,0.3,1.6,0.2,2.5C687.1,546.8,686.4,549.3,684.5,551.5z"/>
		<path class="st70" d="M679,555.9c2.3,0,3.3-2.1,5-3.2c-0.2,0.8-0.4,1.7-0.7,2.5C682.3,558,681.5,558.1,679,555.9z"/>
		<path class="st71" d="M687.3,544c-0.1-0.8-0.1-1.7-0.2-2.5c0.2-3.9,0.4-7.9-2.1-11.3c1.2-0.1,1.6,0.8,1.8,1.6
			C688,535.8,688.5,539.9,687.3,544z"/>
		<path class="st71" d="M679.6,530.9c-0.2,0-0.3-0.1-0.5-0.1c1.8-2,3.8-2.3,6-0.6C683.2,530.5,681.2,529.6,679.6,530.9z"/>
		<path class="st72" d="M285.3,418.9c2.8,5.5,2,12-1.7,15.4c-3,0-2.1-2.5-2-3.8c0.2-3.1-0.6-6.5,2.6-8.8c0.7-0.5,0-1.3-0.1-2
			C284,418.7,284.6,418.7,285.3,418.9z"/>
		<path class="st73" d="M275.9,424.8c0.4-0.9,0.8-1.7,1.2-2.6c1.3-0.9,1.5-2.7,3-3.4c0.9-0.2,1.4-0.1,1.1,1c-1.2,4-1.6,8.4-5.6,11
			C274.5,428.9,276,426.9,275.9,424.8z"/>
		<path class="st74" d="M280.6,427.5c0.2,1.9,0.2,3.2,0.4,4.5c0.2,1,0.8,2-0.5,2.5c-1,0.4-2,0.3-2.7-0.5c-0.9-0.9-1-2-0.3-3
			C278.2,429.9,279.3,428.9,280.6,427.5z"/>
		<path class="st75" d="M885.6,415.5c3.4-1.4,6.6-1.7,9.6,0.8c2.3,1.9,2.3,4.4,0.2,6.6c-2.9,3.1-6.8,3.3-10.6,2.8
			c-2.5-0.3-4.9-0.9-7.4-0.7c-1.3-0.9-0.8-1.9-0.3-3c0.6-1.2,1.5-1,2.5-0.7c0.4,0.2,0.9,0,1.3-0.1c0.2-0.1,0.5-0.1,0.7-0.2
			c2.4,0.3,4.9-1.6,7.4,0.1c0.6,0.4,0.7-0.4,0.9-0.7c0.4-0.6-0.2-0.8-0.6-0.9c-1.8-0.5-3.6-0.4-5.4-0.2c-1.3,0.2-3.2,0.9-3.6-0.5
			c-0.4-1.5,1.8-1.5,2.8-2.3C883.9,416,885,416.3,885.6,415.5z"/>
		<path class="st76" d="M885.6,415.5c-1.2,1.8-3.7,1.2-5,3.1c2.1,0.8,3.9-0.5,5.8-0.3c1.9,0.2,3.8-0.1,5.3,1.8
			c0.1,0.9-1.2,0.2-1.5,0.9c-0.7,1.6-0.7,1.5-1.8,0.4c-0.7-0.7-1.8-0.4-2.6-0.2c-1.5,0.4-3,0.4-4.6,0.4c0.8-2.2,2.9-0.9,3.9-1.8
			c-1.2,0-2.7,0.3-4.1,0.8c-1.2,0.5,0.1,0.6,0.2,1c-0.4,0.6-1.1,0.6-1.7,0.5c-2.5-0.4-2.9,0.1-2.1,2.8c-1.5-0.1-1.9-0.8-1.2-2.2
			C878.3,419.1,881,416,885.6,415.5z"/>
		<path class="st77" d="M258.4,415.5c2.9-1.1,5.6-2.3,8.9-1.5c2.3,0.6,4.3,1.8,4.7,4.2c0.4,2.7-1.1,4.6-3.7,5.5
			c-0.2-0.2-0.2-0.4-0.2-0.7c0.4-1.1,1.5-1.8,1.9-3c-1.4,1.8-2.8,3.9-5.6,2.7c-0.2-0.8,0.4-1.3,0.8-1.9c0.4-0.6,1.7-0.8,1.2-1.8
			c-0.5-1-1.6-1.4-2.8-1.3c-1.2,0.1-2.3,0.5-3.5,0.5c-0.5,0-1.1,0.2-1.6,0.2c-1,0-2.4,0.2-2.6-0.8c-0.3-1.2,1.2-1.2,2-1.7
			C258.1,415.9,258.3,415.8,258.4,415.5z"/>
		<path class="st78" d="M258.4,415.5c-0.2,1.2-1.5,1.2-2.2,2.1c1.9,0.6,3.8,0.2,5.4-0.4c2.9-1,4.7,0.1,6.4,2.4
			c-1.4,0.8-2.5,1.8-3.5,3.1c-0.4,0.5-1,0.6-1.5,0.3c-3.5-2.2-6.9-0.7-10.3,0c-0.4,0.4-0.8,0.7-1.3,0.8c-1.1-0.9-0.2-1.6,0.3-2.3
			C253.3,418.9,254.9,416.2,258.4,415.5z"/>
		<path class="st79" d="M251.4,423.9c0.2-0.4,0.4-0.7,0.5-1.1c3.2-1.1,6.3-1.7,9.6-0.1c1.7,0.9,3.5,0.4,5.2,0.1
			c0.6-0.1,1.5-0.8,1.6,0.6c0,0.2,0,0.3,0,0.5c-0.3,0.2-0.7,0.4-1,0.6c-3.3,0.4-6.7,1.1-10-0.1c-1.1-0.4-2.5-0.4-3.7,0.1
			C252.7,424.8,251.9,424.7,251.4,423.9z"/>
		<path class="st80" d="M253.6,424.4c1.3-1,2.8-0.8,4.1-0.3c3.2,1.1,6.4,0.1,9.6,0.3c-2.9,1.2-6,1.2-9,0.5
			C256.7,424.5,255.2,424.2,253.6,424.4z"/>
		<path class="st21" d="M764,497.5c-0.8,2.3,1.5,3.3,2.2,4.9c-1.3-1.1-2.4,2-3.4,0.3c-0.7-1.2,1-2.4,0.7-3.7
			C763.4,498.4,763.6,497.8,764,497.5z"/>
		<path class="st21" d="M766.2,502.4c0.4,0.1,0.8,0.3,1.2,0.1c0.5-0.3,0.1-1.5,1-1.1c0.6,0.2,0.5,1.1,0.4,1.7
			c-1.5,0-0.6,1.8-1.8,2.3C766.8,504.3,766.5,503.3,766.2,502.4z"/>
		<path class="st81" d="M868.8,439.6c-1.5,2-3.4,3.4-5.9,3.9c-1,0.3-1.9,0.4-2.9-0.1c-0.2-1.5,1.1-1.1,1.8-1.4
			c1.4-0.5,1.8-1.4,1.4-2.7c-0.2-0.7-0.5-1.4-0.6-2.1c-0.2-1.2-0.5-2.5-1.9-2.7c-1.3-0.2-1.9,0.9-2.4,1.8c-0.7,1.1-1.1,2.2-0.1,3.5
			c0.7,0.9,2.2,1.7,0.7,3.1c-1.3,0.1-2-1.1-2.9-1.7c-1.1-3.5,0-5.9,4.3-8.8c1.6-0.6,3.2-0.1,4.9-0.5c1.6-0.4,1.1,1.5,1,2.5
			c0.6-1,1.6-1.6,2.6-2.2c0.3-0.1,0.5-0.1,0.8-0.1c1.5,0.4,1.6,1.6,1.7,2.9C870.6,436.7,868.7,437.6,868.8,439.6z"/>
		<path class="st82" d="M862.7,430.9c2.6-2.6,6.4-2.1,9.5-3.3c0.9-0.3,1.3,0.7,1.4,1.6c0.3,1.7,0,3.2-1.1,4.6
			c-0.2,0.2-0.4,0.2-0.7,0.2c-1.2,0.2-0.9-2.3-2.5-1.3l0,0c-2,1.2-3.1-1.7-5-1.2C864,431.5,863.1,431.5,862.7,430.9z"/>
		<path class="st83" d="M862.7,430.9c2.4-0.2,4.6,0.7,6.7,1.7c-1.3,1.2-2.6,2.3-4,3.6c-0.8-1.5,1.6-2.4,0.2-3.9
			c-1.5,2.6-3.3,0.6-5.1,0.3C861,431.7,861.7,431.2,862.7,430.9z"/>
		<path class="st84" d="M872,433.6c0.2,0,0.4,0,0.6,0.1c-0.7,2.4-1.8,4.4-3.8,6c-2-2.8,0.7-3.3,2.2-4.3
			C871.6,434.9,870.6,433.6,872,433.6z"/>
		<path class="st85" d="M860,443c0.9,0.8,2,0.2,2.9,0.6c-3.2,1-5.3,0.3-6.7-2.2c1.3-0.2,1.7,1.3,2.8,1.5
			C859.4,442.6,859.7,442.6,860,443z"/>
		<path class="st86" d="M243.2,439.5c-1.8,2.5-4.2,3.7-7.2,3.7c-2.1,0-4-0.8-5-2.7c-1.1-2.2,0.1-4.1,1.2-5.8c0.7-1,1.6-2,2.8-2.5
			c0.8,1.9-1.2,2.3-1.8,3.4c1.7-2.2,4.8-1.9,6.9-3.7c0.5-0.4,1.2,0.2,1.2,0.9c0,0.7-0.1,1.4-0.1,2.2c-0.2,1.1-0.8,1.7-2,1.8
			c-0.4-0.3-0.5-0.1-0.5,0.3c-0.7,0.6-1.5,0.4-2.3,0.4c-0.8,0-1.6,0.2-1.4,1.2c0.2,1.1,1.1,0.7,1.7,0.5c0.9-0.3,1.7-1,2.6-1.5
			C240.9,436.8,242.7,437.8,243.2,439.5z"/>
		<path class="st87" d="M243.2,439.5c-1.9-1.9-3.6-1.5-5.7,0c-2,1.4-3.3,0.9-3.5-0.9c-0.2-1.8,1-2.1,2.4-2.1c0.8,0,1.7,0.9,2.5-0.1
			h0c1.1-0.1,1.7-0.8,2.2-1.6c0.2-1.2,1.2-1.9,2-2.6c2-2,3.1,0.3,4.5,1c-0.1,0.8-0.5,1.5-1,2.2c-0.4,0.5-0.9,0.9-1.5,1.1
			c-1.3,0.3-0.9,1.2-0.8,2.1C243.8,438.7,243.9,439.5,243.2,439.5z"/>
		<path class="st88" d="M247.5,433.1c-0.6-0.1-1.2,1.7-1.7-0.1c-0.5-2-1.6-0.9-2.6-0.5c-1.7-0.6-3.7-0.8-4.6-2.9
			c2.5-2.2,5.8-1.7,8.6-2.8c0.7-0.3,1.2,0.7,1.3,1.4C249,430.1,248.7,431.7,247.5,433.1z"/>
		<path class="st89" d="M238.7,429.7c0.5,0.4,1.1,1.1,1.5,1.1c1.6-0.2,2.2,0.9,3.1,1.8c-0.5,0.9-1.3,1.6-2.2,2.2
			c-1.8-0.6,0.4-1.6-0.5-2.5c-2,2.8-6.4,1.4-8.1,5.5c-0.5-1.8,0.2-2.5,0.9-3.3c0.6-0.7,1.6-1.2,1.7-2.3
			C236,431,237.3,430.3,238.7,429.7z"/>
		<path class="st90" d="M244.2,438.5c-0.6-0.2-1.1-0.5-1.7-0.7c0.8-1.8,2.2-2.4,4-2.4c-0.2,0.7-0.5,1.4-0.7,2.1c0,0,0,0,0,0
			C245.3,437.8,244.8,438.1,244.2,438.5z"/>
		<path class="st91" d="M911.9,426.2c0.2,4.2-1.6,7.4-4.9,9.8c-2.7,2-6.2,0.9-7.3-2.2c-1-3-0.2-5.9,1.1-8.7c1.4-2.9,4.1-5.1,5.4-8.1
			c0.5-1.2,1.5-0.4,2,0c2,1.3,2.6,3.4,3.2,5.5C911.8,423.7,911.8,425,911.9,426.2z"/>
		<path class="st92" d="M350.1,584.3c-2.6-3.3-2.8-7.6-0.5-10.7c1.5-2,4.5-2.1,6.2-0.2c2.6,3,3.2,6.6,3.1,10.4
			c-0.1,1.3-0.4,2.5-0.2,3.8c0.2,1.1-0.1,2-1.2,2.5c-1,0.5-1.9,0.1-2.5-0.9c0.5-0.7,1.6-0.6,1.8-1.6c0.1-0.4,0.1-0.9,0.4-1.3
			c-0.4,0.2-0.2,0.8-0.8,0.9c-0.9,0.1-1.4-0.4-1.7-1.1c-0.4-0.7-0.4-1.6-0.6-2.4c-0.6-2.8-1.3-5.5-4.4-7c-0.7,1.6,0.1,3.2,0.4,4.8
			C350.2,582.5,351,583.4,350.1,584.3z"/>
		<path class="st93" d="M350.1,584.3c-0.4-1.6-0.7-3.3-1.3-4.9c-0.6-1.9,0-3.3,1.3-5c0.5,1.8,1.5,2.6,2.6,3.6c1.9,1.7,1.9,4.5,2.4,7
			c0.1,0.7,0,1.6,1,1.7c0.9,0.1,0.4-1.1,1-1.3c0.7,4.2,0.7,4.2-2.1,3.8C352.9,587.9,351.1,586.5,350.1,584.3z"/>
		<path class="st94" d="M241.2,498.5c3.9,0.9,5.5,3.9,6.8,7.1c1.2,3.1,1.3,6.6,3.2,9.5c0.2,0.3,0,0.7-0.4,0.9
			c-0.4,0.4-1,0.3-1.5,0.2c-1.1-0.5-1.4-1.9-2.3-2.6c-0.4-0.4-0.5-0.9-0.6-1.5c0.2-4.8-3.5-7-6.3-9.7c-0.5-0.5-1.2-0.2-1.8-0.2
			c-2.5,0.1-2.7-0.3-1.7-2.8l0,0C238.1,498.9,239.4,497.8,241.2,498.5z"/>
		<path class="st95" d="M247,512.2c0,0.4,0.1,0.9,0.5,1.1c1,1.2,1.5,2.3-0.5,2.9c-0.4,0.1-0.9,0-1.3-0.1c-0.5,0-1.1,0.1-1.5-0.4
			c-0.2-0.7-1.4-0.8-1-1.7c0.4-0.9,1.5,0.1,2.2-0.5c-0.1-1.1-0.6-1.9-1.5-2.4c-1,3-1.9,3.2-3.8,0.8c-0.7-0.8-1.4-1.3-2.3-1.8
			c-1.3-1.4-2-3-2.3-4.9c1.4-2.8,3.4-3.1,5.3-0.8c1.1,1.4,2.3,2.9,3.8,3.8C246.3,509.1,246.9,510.5,247,512.2z"/>
		<path class="st96" d="M247,512.2c-0.6-1.4-1.2-2.5-2.7-3.3c-1.5-0.7-2.6-2.2-3.7-3.5c-1.9-2.2-2.5-2.3-5.1-0.3
			c-0.6-2-0.9-4,1.1-5.6c-0.2,1.4-0.6,2.9,1.8,2c0.5-0.2,1.1-0.2,1.6-0.1C243,502.1,247.4,509,247,512.2z"/>
		<path class="st97" d="M237.8,510c1.2-0.1,2.1,0.1,2.6,1.4c0.4,0.9,1.2,1.9,2.2,1.4c0.8-0.4-0.1-1.4-0.2-2.2c0-0.2,0-0.5,0-1
			c1.5,0.6,3.4,0.6,3.5,2.8c0.1,0.9,1.5,1.5,0.6,2.3c-0.9,0.8-1.7-0.5-2.7-0.7c-0.4,0.7,0.6,1.1,0.4,1.7
			C241.8,514.1,239.5,512.4,237.8,510z"/>
		<path class="st96" d="M241.2,498.5c-1.7-0.1-3.1,0.9-4.7,1.1C237.9,498.2,239.4,497.8,241.2,498.5z"/>
		<path class="st97" d="M245.7,516.1c0.5-0.1,1-0.1,1.5-0.2c0.7-0.3,1.4-0.5,2.1-0.1c0.5,0,1.1,0.1,1.6,0.1
			C249.1,517,247.4,517,245.7,516.1z"/>
		<path class="st98" d="M391.5,438.9c0.2-0.5,0.5-0.8,1-1c1.1-0.3,1.8-1.3,2.9-1.6c4.8-2,9.5-2.9,14.2,0.2c0.5,0.4,1.1,0.7,1.2,1.4
			c0.9,4.4,0.7,5-3.3,6.7c-0.6,0.5-1.3,0.7-2.1,0.6c-1,0.4-2,0.3-3.1,0c-0.3,0-0.6-0.1-0.9-0.1c-0.2-0.2-0.2-0.5,0-0.7
			c0.9-1.1,2.3-1,3.7-1.2c-0.7-0.7-1.7-0.8-2.4-1.4c-0.8-0.7-1.5-1.4-0.4-2.4c0.4-0.3,1.1-0.4,1-1.1c-0.2-0.7-0.8-0.6-1.3-0.5
			c-1.8,0.3-3.6,0.5-5.3,1c-1,0.4-2,0.7-3,1.2C392.7,439.8,391.5,440.7,391.5,438.9z"/>
		<path class="st99" d="M401.4,444.6c0,0.2,0,0.3,0,0.5c-3.3-0.2-5.9-2.1-8.9-3.1c0.8-0.8,0.7-1.9,1.2-2.8c0.8-0.7,1.8-0.8,2.8-1.1
			c0.7-0.5,1.6-0.2,2.4-0.3c2.6,0.4,2.7,3.5,4.7,4.5c0.4,0.2,0,0.8-0.5,1C402.4,443.6,401.6,443.7,401.4,444.6z"/>
		<path class="st100" d="M393.7,439.1c0.5,1.4,1.8,3-1.2,2.8c-2.1-0.4-2.1-1.6-1-3C392.1,440.1,393,439,393.7,439.1z"/>
		<path class="st101" d="M407.4,444.6c2.7-1.4,4.3-3.4,3.3-6.7C412.5,441.7,411.6,443.6,407.4,444.6z"/>
		<path class="st100" d="M395.3,436.3c-0.8,0.9-1.6,1.7-2.9,1.6C393.2,437,394,436.3,395.3,436.3z"/>
		<path class="st101" d="M402.2,445.2c1,0,2,0,3.1,0C404.3,445.7,403.3,445.7,402.2,445.2z"/>
		<path class="st102" d="M244.3,591.2c-1.5,1.8-3.5,2.6-5.7,2.8c-2.4,0.3-4.7-0.3-5.9-2.5c-1.3-2.3,0-4.4,1.4-6.2
			c0.7-0.9,1.5-1.8,2.7-2.2c1.8,0.2,3.7,1.1,5.4-0.5c0.5-0.5,1-0.2,1.1,0.6c0.1,1,0.9,1,1.6,1c-0.8,2.3-3.2,4.2-5.6,4.1
			c-0.6,0-1.3-0.2-1.9,0.1c-0.6,0.2-0.9,0.7-0.6,1.3c0.2,0.5,0.7,0.5,1.2,0.4c1-0.2,1.8-0.8,2.6-1.4c1.6-1.1,2.8-0.1,4,0.7
			C245.5,590,244.6,590.6,244.3,591.2z"/>
		<path class="st103" d="M244.3,591.2c0-1.2-2.1-2.6-3.1-2c-0.8,0.4-1.5,1-2.3,1.5c-0.9,0.5-1.8,0.9-2.8,0.1
			c-0.7-0.6-0.6-1.5-0.4-2.3c0.3-1.1,1.4-1.4,2.2-1.2c3.3,0.9,4.9-1.5,7-3.2c1.3-0.9,2.7-2,2.8,0.9c0,0.5,0.5,0.6,1,0.7
			C247.6,588,246.3,589.9,244.3,591.2z"/>
		<path class="st104" d="M753,479.5c-0.1-0.1-0.3-0.2-0.4-0.3c-1.6-3.5-0.9-7.4,1.5-8.7c2.5-1.3,5.5,0,7.7,3.6
			c-0.2,0.9-0.8,1.5-1.4,0.7c-2.3-3.3-2.6-0.3-3.5,1c-0.6-0.8-0.3-2-1.4-2.5c-2.2,3.9-2.2,3.9,1.3,9.2c0.4,0.6,1.6,1.2-0.1,1.6
			c-1.4,0.1-1.3-1.4-2.1-2.1C754.5,480.9,753.7,480.2,753,479.5z"/>
		<path class="st105" d="M760.2,480.6c0.7-0.3,1.8,2.2,2.5,3.4c0.4,0.7,1.2,1.5,0.4,2.2c-0.8,0.8-1.4-0.1-2-0.6
			c-1.6-1.4-2.7-3.1-3.6-5c-0.3-0.5-0.8-1.2-0.3-1.7c0.8-0.7,1.2,0.4,1.7,0.7C759.4,479.9,759.8,480.2,760.2,480.6
			C760.2,480.6,760.2,480.6,760.2,480.6z"/>
		<path class="st106" d="M349,547.1c0.7-0.8,1.6-0.9,2,0c1.6,3.8,5.1,6.3,6.7,10.1c0.8,2,0.8,3.9-0.1,5.7c-1.1,2.1-3,2.7-5.4,1.7
			c-0.7-0.9-0.6-1.8,0.2-2.6c0.6-0.6,0.9-1.1,0.5-1.9c-0.1-0.2-0.2-0.4-0.3-0.7c-0.5-1.2-0.6-2.4-0.1-3.7c0.4-0.9,0.2-1.6-0.6-2
			c-0.4-0.3-0.8-0.6-1.2-0.9c-0.3-0.3-0.5-0.5-0.8-0.8C348.2,550.7,347.5,549.1,349,547.1z"/>
		<path class="st107" d="M353.4,559.7c0.8,1.1,1.5,2.1-0.5,2.9c-1,0.4-0.5,1.4-0.7,2.1c-2.5-1.2-3.5-3.1-4.3-5.9
			c-0.9-3.1-0.9-5.9-0.4-8.8c0,0,0,0,0,0c0.8-0.8,0.1-2.4,1.5-2.8c-1.3,2.3,0.8,3.3,1.7,4.9c-1.4,0.8-1.7,1.9-0.6,3.2
			c0.6,1.3,1.6,2.4,1.9,3.8C352.2,559.9,352.7,559.9,353.4,559.7z"/>
		<path class="st108" d="M573.7,440.2c1.9-0.6,3.6,0.7,5.4,0.7c0,0,0,0,0,0c1.8,1,3.5,2.1,5.3,3.1c1.6,1,1.6,2.2,0,3.1
			c-1.9,1.1-3.9,2.1-6.3,1.9c-0.2-1.4,1-1.2,1.7-1.6c0.9-0.4,1.9-0.6,3.3-1.5c-1.8,0.3-2.9,0-4-0.3c-1.9-0.4-3.8-0.9-5.8-0.1
			c-1.2,0.5-2.3,0.2-3.3-0.5c-0.2-0.1-0.2-0.2-0.1-0.4C569.9,441.5,570.3,441.1,573.7,440.2z"/>
		<path class="st109" d="M569.9,445.1c3.8-0.4,7.7-1.3,11.5,0.4c0.8,0.4,2.4-1.7,2.8,0.1c0.3,1.5-1.8,1.6-2.9,2.2
			c-1,0.6-2.3,0.3-3.2,1.2c-0.5,0.3-1.1,0.4-1.7,0c-2.3-0.7-4.7-1.1-6.1-3.3C570,445.7,569.8,445.5,569.9,445.1z"/>
		<path class="st108" d="M570.3,445.7c1.8,1.5,4.1,2.2,6.1,3.3C573.8,449,571.6,448.3,570.3,445.7z"/>
		<path class="st110" d="M573.7,440.2c-2.1,0.9-3.7,2.1-3.9,4.6C569.1,441.6,570.1,440.4,573.7,440.2z"/>
		<path class="st111" d="M669.1,479.5c-1.6-3.8-2.2-7.5,0.7-10.9c2.2-1.7,4.4-3,7.1-1.1c1.2,1.3,2.7,2.4,2.7,4.4
			c-0.3,1.3,0.2,2.6,0.4,3.8c-1.5,1.1-2.6,3.3-5,1.9c-0.2-0.9,0.4-1.7,0.5-2.6c0-0.5,0.2-1.1,0.3-1.6c0.2-0.9,0.9-1.9-0.1-2.8
			c-0.9-0.7-1.9-0.4-2.8,0c-1.2,0.5-1.5,1.5-1.1,2.7c0.1,0.3,0.2,0.5,0.2,0.8C672.3,477.3,672,477.9,669.1,479.5z"/>
		<path class="st112" d="M675.2,477.3c2,0.7,3-1.7,4.8-1.7c0.8,3.3-0.4,5.6-3.6,6.7c-0.6,0.2-0.5,0.8-0.6,1.4
			c-0.4,2.3-1.7,2.2-3.3,1.2c-0.9,0-0.8-0.5-0.7-1.1c2.4-0.6,2.9-2,1.9-4.1c-0.3-0.7-0.6-1.6-0.2-2.4
			C673.8,476.3,674.6,475.7,675.2,477.3z"/>
		<path class="st113" d="M671.9,483.8c0.2,0.4,0.3,0.7,0.5,1.1c0,0.4,0,0.7,0,1.1c-0.5-0.6-1-1.1-1.6-1.7c-0.2-1.6-1.8-2.6-1.7-4.3
			c0.9,0,0.9-1.8,2.1-1.2c1,0.5,1,1.6,1.2,2.6C672.6,482.3,672.2,483.1,671.9,483.8z"/>
		<path class="st114" d="M268.2,552.7c-0.9-3.6-1.9-7.2,0.6-10.5c1.7-0.5,1.4,0.7,1.5,1.6c0.1,0.8-0.5,1.9,0.6,2.4
			c0.6,0.3,1.2-0.2,1.6-0.7c0.7-0.9,0.8-1.9,0.3-3c-0.4-0.9-2-1.1-1.8-2.4c1.9-1.6,3.8-1.5,5.2,0.6c1.2,1.9,1.7,3.9,0.4,6.1
			c-0.7-0.4-0.5-1.1-0.4-1.7c-0.2,0.6-0.2,1.2-0.6,1.7c-0.8,1.2-1.9,2.6-3.2,2.8C270.2,549.7,269.2,551.1,268.2,552.7z"/>
		<path class="st115" d="M268.2,552.7c0.2-2.1,0.1-3.8,3.4-3.8c2,0,3.5-2.5,4.4-4.7c0.7,0.8,0.2,1.7,0.5,2.4c0,0,0,0,0,0
			c-0.7,0.6-0.7,1.6-1.1,2.3c-0.2,1.5-1.8,1.8-2.4,3c0,0,0,0,0,0C271.5,552.1,270.2,554.3,268.2,552.7z"/>
		<path class="st116" d="M271,540c1.9,1.1,3.7,2.1,2.8,5c-0.6,1.9-1.9,2.2-3.4,2.4c-1.4,0.2-0.7-1.1-1-1.7c-0.6-1.1,1.5-2.6-0.5-3.5
			C269.1,541,269.9,540.4,271,540z"/>
		<path class="st114" d="M275.5,548.9c-0.1-1,0-1.9,1.1-2.3C276.5,547.5,276.3,548.4,275.5,548.9z"/>
		<path class="st117" d="M350.6,523.6c1.8-1.7,3.9-1.8,6-0.9c2.2,1,2.7,3,2.6,5.2c-0.1,4.3-2.4,7.7-5,10.9c-0.5,0.6-1.1,1.2-1.4,2
			c-0.9,2.6-2.1,1.9-3.4,0.2c-1.1-1.6-1.6-3.4-2.2-5.2c-0.4-1.2-0.1-1.8,1.1-1.7c2.1,0.1,2.6-1.2,2.6-2.9c0-1.6-0.1-3.1,1.4-4.1
			c0.1,0,0.2-0.1,0.2-0.1c0.8-0.6,2.6-0.1,2.2-1.7c-0.4-1.4-1.8-0.4-2.8-0.4C351.3,524.9,350.4,524.8,350.6,523.6z"/>
		<path class="st118" d="M352.8,527.5c-0.8,1.1-1.2,2.2-0.9,3.7c0.5,2.9-1.5,4.6-4.2,3.6c0,2.4,1.4,4.2,1.9,6.3
			c-3.1-3.6-3.4-7.7-2.2-12c0.2-0.2,0.3-0.4,0.3-0.7c0-1,0.6-1.7,1.4-2c0.6-0.2,0.7,0,1.7,1.8c0.5-0.9,0.5-2.1,1.8-2.4
			C353.4,526.2,353.3,526.8,352.8,527.5z"/>
		<path class="st119" d="M352.3,525.8c-0.1,1.1-0.8,2-1.4,3.2c-1.5-3.3-2.6-2.1-3.5,0c0-1.8,0.7-3.3,2.2-4.4c1,0,1.9,0,2.8,0.5
			C352.5,525.4,352.5,525.6,352.3,525.8z"/>
		<path class="st118" d="M352.3,525.3c-0.8-0.5-2.2,1.1-2.7-0.6c0.2-0.5,0.5-0.9,1.1-1.1c0.6,0.4,1.1,0.8,1.7,1.2
			C352.4,524.9,352.4,525.1,352.3,525.3z"/>
		<path class="st120" d="M681.8,519.4c-1.5,2-3.5,1.5-5.5,1c-1.5-0.4-2.2-1.4-2.7-3c-0.7-2.6-0.9-5.1-0.4-7.7
			c0.1-0.5,0.3-0.8,0.9-0.7c1.7,1.9-0.1,4.2,0.7,5.9c-0.3-2.2,0.1-4.7,0.8-7.1c0.3-1.3,1.3-2,2.6-2c1.5,0,2,0.9,2.1,2.3
			c-0.1,2.3-0.8,4.7,1.2,6.8c0.9,1,0.1,2.6,0.1,3.9C681.7,518.9,681.7,519.1,681.8,519.4z"/>
		<path class="st121" d="M679.5,508.4c-0.1-0.9,0.3-2.2-1.3-2.1c-1.2,0.1-1.8,0.8-2,2.1c-0.5,2.9-0.8,5.8-0.4,9.3
			c-2.9-3-1.2-6.1-1.8-8.9c-0.8-2,0.6-3.6,1.2-5.3l0,0c1.4-0.8,1.8-2.2,2.3-3.5c1.3-3.6,2.5-3.9,5.3-1.4c0,0.3,0.1,0.6,0.1,0.9
			c0.1,0.2,0.2,0.5,0.1,0.7c-1.1,0.4-1.4-0.9-2.8-1.2c2.2,2.7,1.2,5.3,0.6,7.9C680.6,507.6,680.6,508.5,679.5,508.4z"/>
		<path class="st120" d="M682.7,500.2c0-0.2,0.1-0.5,0.1-0.7c3.5,4.7,4.3,9.9,2.8,15.6c-0.6,2.1-2.2,3.1-3.8,4.3
			c-0.1-0.1-0.1-0.2-0.2-0.2c-0.3-0.6-0.1-1.1,0.2-1.5c3.6-4.3,3.3-9,1.6-13.9C683,502.6,682,501.6,682.7,500.2z"/>
		<path class="st122" d="M392.6,498.5c0.4-0.9,1.5-0.5,2-1.1c1.9-0.8,3.8-0.6,5.7,0.1c2,1.7,2.1,3.1,0.6,5.2
			c-1.4,1.9-3.7,2.5-5.6,3.4c0,0,0,0,0,0c-2.3,0.2-4.7,0.4-7,0.6c-0.8-1.8,0.8-2,1.7-2.7c1.5-1,3-2.2,4.7-2.9
			c1.2-0.4,2.3-1.3,3.8-1.4c-1.8-1.3-3.2-0.1-4.7,0.4c-0.6,0.2-1.3,0.5-1.7-0.1C391.5,499.3,392.3,498.9,392.6,498.5z"/>
		<path class="st123" d="M390.5,504.6c-0.7,0.8-2.3,0.6-2.2,2.2c-2.2,0.3-1.6-1.2-1.1-2.1c1.3-2.5,2.9-4.7,5.4-6.1
			c-0.8,2.1,0.4,1.3,1.3,0.8c1.9-1,3.8-2.1,5.5,0.6c-1.5,0.6-3,1.3-4.6,1.9c-2.4-0.8-3.7,1.2-5.4,2.2
			C389.8,504.2,390.2,504.2,390.5,504.6z"/>
		<path class="st123" d="M400.4,497.5c-1.9,0.2-3.8-0.5-5.7-0.1C396.5,496.2,398.5,496.2,400.4,497.5z"/>
		<path class="st124" d="M254.6,519.2c1.1-1.9,2.6-2.4,4.5-1c1.8,1.4,4.5,1.2,6,3.2c-1.3,1.1-2.5-0.6-3.9-0.1c0.2,1.4,1,1.4,1.9,1
			c1.1-0.4,1.8,0.1,1.8,1.3c0,1.7,1,2.8,2,4c1,1.2,1.9,2.5,0.8,4.2c-1-1.2-2.2-2.1-4-2.4c-2.4-0.5-4-2-5-4.4c-0.8-2-1.6-4.1-4.1-4.6
			C254.3,520,254.4,519.7,254.6,519.2z"/>
		<path class="st125" d="M267.8,531.8c-0.1-1.4-0.4-2.7-1.3-3.8c-2-2.4-2-2.4-2.4-5.5c-2,2-3.2,1.2-4.1-1c-0.5-1.3,0-1.7,1.3-1.4
			c1.3,0.4,2.6,0.9,3.8,1.3c1.5,0.9,2.7,2,3.3,3.7c0.2,1.6,0.4,3.2,0.5,4.8C268.9,530.8,268.9,531.7,267.8,531.8z"/>
		<path class="st126" d="M254.6,519.2c0,0.4,0.1,0.7,0.1,1.1c0.8,2,1.5,4,2.3,6c0.4,0.9,0.9,1.7,0.9,2.8c-1.1,0.3-0.5-2.6-2.1-1.1
			C254.5,525.2,253.2,522.4,254.6,519.2z"/>
		<path class="st126" d="M266.9,534.4c-0.6,0-1.4,0.6-1.5-0.4c-0.1-0.9-0.5-1-1.2-0.9c-3.4,0.4-4.6-0.3-6.3-4
			c2.1,1.7,3.8,4.1,7.3,2.9C266.6,531.5,266.9,533.1,266.9,534.4z"/>
		<path class="st127" d="M417.2,445.2c-1.3-0.9-1.8-2.1-1.4-3.8c0.5-1.6,1.6-2.2,3.2-2.5c2.8-0.5,5.2,0.5,7.6,1.5
			c1.4,0.6,2.6,1.6,3.9,2.4c1.5,0.8,1.8,2.1-0.2,2.9C426,444.5,421.7,442.7,417.2,445.2z"/>
		<path class="st128" d="M417.2,445.2c2.1-2.4,4.7-2.7,7.6-1.8c1.5,0.4,2.8,1.5,4.6,0.8c1.4-0.5,1.3,0.6,0.9,1.6
			c-3.3,2.1-6.8,2.8-10.6,1.6C418.5,446.9,417.6,446.4,417.2,445.2z"/>
		<path class="st129" d="M860.5,505.7c-0.6-1.7-0.8-3.4,0.5-5c1-0.6,1.9-0.7,3-0.1c2,1,4,2.3,6.5,1.7l0,0c1.6,2.5,2.8,5.1,3.1,8
			c0.1,1.3,0.8,2.4,1.3,3.6c0.4,0.9,1.2,1.7,0.5,2.8l0,0c-1.2,0.4-2.3,0.1-3.5,0.2c-0.5-0.1-0.7-0.4-0.8-0.8
			c-0.2-2.4-1.3-4.3-3.3-5.6c-0.9-1-2-1.8-3.1-2.6c-0.6,0.3-0.3,0.8-0.4,1.2c-0.1,0.5-0.2,1.1-0.9,1.2c-0.7,0.1-0.9-0.5-1.1-1
			c-0.4-0.7-0.9-1.4-0.6-2.3C861.9,506,860.9,506.1,860.5,505.7z"/>
		<path class="st130" d="M860.5,505.7c0.9,0.1,1.8-1.1,2.5-0.1c0.7,0.8-0.6,1.1-0.8,1.7c-0.4,1.1,0.3,1.8,1,2.5
			c0.9-0.4,0.2-0.9,0.2-1.4c0-0.9,0.2-1.7,1.1-2c1-0.3,0.6,1,0.9,1.2c1.1,0.6,2.2,1.3,2.8,2.5c0.2,2.3,1.9,3.8,3.3,5.5
			c0,0.3,0,0.6,0.1,0.9c-0.9,0.6-1.6-0.3-2.5-0.3c-0.4-0.3-0.3-0.2-0.9-0.5c-1.4-1.7-3.2-3.1-4.9-4.5
			C861.6,509.7,860.9,507.8,860.5,505.7z"/>
		<path class="st131" d="M870.5,502.3c-1.5,1.5-2.6,1.7-4.5,0.1c-1.1-0.9-3-2.2-5-1.7c1.8-2.4,4.2-1.9,6.6-1.5
			C868.7,500.2,869.9,501,870.5,502.3z"/>
		<path class="st131" d="M875.4,516.6c-1.6-4.8-3.2-9.6-4.9-14.3c1.1,0.4,1.1,1.7,2,2.4c1.4,3.5,1.4,7.4,3.5,10.7
			C876.4,515.9,876.4,516.6,875.4,516.6z"/>
		<path class="st132" d="M863.3,511.1c2.1,1,4,2.2,4.9,4.5C866.4,514.3,864.4,513.1,863.3,511.1z"/>
		<path class="st132" d="M869.1,516.1c0.9-0.2,1.6,0.1,2.5,0.3c1.3,0.1,2.6,0.1,3.8,0.2C873.2,517.8,871.1,517.2,869.1,516.1z"/>
		<path class="st133" d="M723.1,580.8c1.3-1,2.7-1.8,4.3-2.1c3.5-0.8,6.1,1.8,5.3,5.3c-1.1,5.1-7.1,8.9-12.2,7.9
			c-1.7-0.3-2.5-1.2-1.7-2.8c0.6-1.4,0.6-3,1.7-4.3C721.4,583.5,721.8,581.8,723.1,580.8z"/>
		<path class="st134" d="M723.1,580.8c-0.8,1.4-1.2,3-2.6,3.9C720.7,583,721.4,581.6,723.1,580.8z"/>
		<path class="st135" d="M223,465.8c-1-3.6-2.7-7-2.1-10.9c0.5-3.1,1.7-5.7,4.7-7.1c0.8-0.3,1.4-0.2,1.6,0.7
			c-0.9,2.4-0.8,5.2-2.3,7.4c-0.3,0.4-0.6,0.8,0,1.1c2.3,1.3,0.5,2.6,0.4,4.3c-0.1,0.9,0,1.6,0.5,2.8c0.3,0.8,1.3,1,0.7,2
			c0.1,0.1,0,0.3-0.1,0.3C225.1,467,224,466.6,223,465.8z"/>
		<path class="st136" d="M226.4,466.1c-1.2-1.7-1.6-4.5-1-6.7c0.7-2.7-1.9-1-2.8-2.4c3.6-1.4,1.8-5.6,4.2-8c0.1,0.1,0.2,0.2,0.3,0.2
			c0.6,1,0.4,2.1,0.5,3.2c0,0.7-0.2,1.6,0.3,2.1c1.9,1.9,1.3,3.9,0.1,5.7c-1.1,1.7-1.4,3.4-0.8,5.2c-0.1,0.3-0.2,0.5-0.5,0.6l-0.2,0
			L226.4,466.1z"/>
		<path class="st137" d="M231.8,457.1c-1.2,2.9-2.1,6-3.8,8.8c-0.4,0.3-0.7,0.8-1.2,0.1c-0.1-0.1-0.1-0.2,0-0.3
			c-0.2-2.7,0.7-4.9,1.9-7.3c0.9-1.8,0.1-3.7-0.5-5.5c-0.4-1.2-1-2.3-1.1-3.6c0.2-0.9,0.2-1.7-0.9-2c0.8-0.8,1.8-0.7,2.8-0.5
			c0.3,0.3,0.8,0.6,0.6,1.1c-0.9,1.6-0.1,2.4,1,3.4C232.5,452.8,232.1,455,231.8,457.1z"/>
		<path class="st138" d="M231.8,457.1c0-2.4,0-4.9-2.3-6.5c-1.6-1.1,0.1-2.6-0.4-3.9c1-0.1,1.6,0.5,2.2,1.1
			c-1.7,1.2-1.8,1.9,0.1,3.3C233.5,452.7,232.3,455.1,231.8,457.1z"/>
		<path class="st136" d="M226.3,447.3c1,0.1,2.6-0.1,1.1,1.7c-0.2,0.3-0.3,0.3-0.5,0c0,0,0,0,0,0c0-0.8-0.6-1-1.2-1.2
			C225.8,447.6,226,447.4,226.3,447.3z"/>
		<path class="st139" d="M223,465.8c1.1,0.2,2.2,0.4,3.2,0.5C225,467.3,223.9,467.1,223,465.8z"/>
		<path class="st140" d="M255.2,570.5c1.8-4.1,4-7.6,8.7-8.9c2.3-0.6,4.2-0.3,5.6,1.8c0.6,1.5,0.3,3,0,4.5l0,0
			c-0.5,0.7-0.6,1.5-1.1,2.2l0,0c-0.1,0.1-0.1,0.1-0.2,0.2c-0.6,0.6-1,1.9-2,1.3c-1-0.6,0.2-1.6,0.4-2.4c-0.6-0.1-0.9,0.3-1.3,0.5
			c-1.6,0.6-2.9,0.8-3.4-1.5c-0.3-1.5-1.2-1.6-1.9-0.2c-0.9,1.9-3.2,3-3.2,5.4c-0.1,0.5-0.3,1-0.5,1.5c-0.2,0.3-0.3,0.7-0.4,1
			c-0.3,0.6-0.7,1.2-1.4,0.9c-0.7-0.2-0.6-0.9-0.5-1.4c0.2-0.7-0.2-1.4,0.2-2.1l0,0C254.7,572.4,254.8,571.4,255.2,570.5z"/>
		<path class="st141" d="M256.3,573.2c0-1-0.3-2,0.9-2.8c1-0.7,1.7-2.1,2.3-3.2c0.4-0.7,0.4-1.6,1.5-1.4c1,0.2,1.8,0.8,1.8,1.8
			c-0.2,3.1,1.4,1.8,2.7,1.1c0.8-0.4,1.4-1.1,2.5-1.2c0.5,1.7-1.4,2.4-1.7,4c0.9-0.6,1.5-1,2.2-1.4c0,1.1-1,1.6-1.3,2.6
			c-0.5,0.2-1,0.5-1.4,0.7c-1.2,0.6-2.5,1.3-2.4-1c0-0.3,0.2-1-0.2-0.8c-1.8,0.6-4.2-1-5.5,1.5c-0.2,0.2-0.4,0.3-0.6,0.5
			C256.7,573.5,256.5,573.4,256.3,573.2z"/>
		<path class="st142" d="M256.8,573.3c0.8-1.8,1.4-3.7,4.2-2.4c0.9,0.4,2.3-0.4,3.3-0.6c1.2,0.8-3,3.5,1.3,3
			c-0.8,0.7-1.5,1.4-2.3,2.1c-1.8,0.7-3.6,1.5-5.4,2.2c-1.2-0.8-3-1.2-2.2-3.3c0.2-0.4,0.3-0.8,0.5-1.1
			C256.5,573.2,256.6,573.3,256.8,573.3c1.2,1.3,2.2,0.2,3.3-0.3C258.9,572.3,258,573.9,256.8,573.3z"/>
		<path class="st141" d="M255.7,574.4c0,0.7,0,1.5,1,1.6c1.1,0.1,1.2,0.8,1.2,1.7c-0.7,0.8-1.4,1.8-2.7,1.3
			c-1.3-0.5-1.7-1.8-1.6-3.1c0-0.9-0.1-1.8,0.4-2.6c0.1,1,0.3,2,0.4,3.1C255.6,576,254.9,574.7,255.7,574.4z"/>
		<path class="st141" d="M269.4,567.9c0-1.5,0-3,0-4.5C270.8,564.9,270.2,566.4,269.4,567.9z"/>
		<path class="st141" d="M255.2,570.5c0.1,1.1-0.1,2.1-1.1,2.8C254.2,572.2,254.4,571.2,255.2,570.5z"/>
		<path class="st141" d="M268.4,570.1c0-0.9,0.3-1.7,1.1-2.2C269.5,568.8,269.1,569.5,268.4,570.1z"/>
		<path class="st143" d="M563.8,579.3c2,2,1.8,4.6-0.6,6.7c-3.3,2.9-9,2.8-12.4-0.2c-0.8-1.1,0.3-1.5,0.8-2.1
			c0.6-0.7,1.4-1.3,1.8-2.2l0,0c1.9-1.1,3.4-3,6-2.9c0.5,1.8-1.1,2.2-2,3c-1.4,1.1-1.1,1.9,0.4,2.4c1.3,0.4,2.7,0.9,3.8-0.1
			c1.1-1,0.9-2.2,0.5-3.5c-0.2-0.4-0.2-0.9,0.1-1.3C562.9,579,563.4,578.9,563.8,579.3z"/>
		<path class="st144" d="M559.5,578.8c-2.4,0-3.8,2.2-6,2.6c2.8-4,7.9-4.1,10.3-2.2c-0.5,0-1,0-1.5,0
			C561.2,579.8,560.3,579.6,559.5,578.8z"/>
		<path class="st144" d="M553.5,581.4c0,2-2.6,2.4-2.7,4.3C550,583.2,552.5,582.8,553.5,581.4z"/>
		<path class="st145" d="M847,463.6c0.5-1.9-1-3.4-1.1-5.2c-0.2-3,0.8-5.8,2.2-8.4c0.8-0.6,1.5-1.5,2.5-1.8c1.5-0.6,2.2-0.1,2.2,1.6
			c0,1.3,0.4,2.5,0.9,3.6c1,2.3,1.1,4.8-0.2,7c-1,1.7-1.5,3.4-1.2,5.3c-0.1,0.3-0.2,0.5-0.5,0.7c-1.4,1.1-2.6,0.6-3.9-0.2
			C847.1,465.7,847.6,464.5,847,463.6z"/>
		<path class="st146" d="M851.9,466.4c-1-2.4-0.2-4.4,1.2-6.5c1-1.5,0.8-3.5,0.3-5c-0.6-1.9-1.9-3.6-1.2-5.8
			c0.2-0.8-0.9-0.5-1.5-0.7c0.2-0.2,0.4-0.4,0.6-0.5c2-0.4,3.9-0.8,3.6,2.3c0,0.4,0.3,0.7,0.6,0.9c2.1,1.6,2.3,3.7,1.9,6.1
			c-1.1,3.3-3.5,6-4.8,9.2C852.5,466.5,852.1,466.5,851.9,466.4z"/>
		<path class="st147" d="M856.8,457.1c0.1-2.4,0.1-4.7-2.4-6.1c-0.3-0.2-0.7-0.9-0.6-1.1c1.2-3.2-1.4-1.7-2.5-2
			c2.9-1.2,4-0.8,5.5,1.7c-0.4,1.2,0.6,1.9,1.2,2.7l0,0c0.4,1.9,0.1,3.7,0,5.6l0,0c-0.4,0.3-0.6,0.9-1.3,0.5
			C856.5,457.8,856.5,457.4,856.8,457.1z"/>
		<path class="st148" d="M856.8,457.1c0,0.4,0,0.7,0,1.1c1,1.1-0.8,2.2,0,3.3c-1.3,2.1-2.5,4.4-4.9,5.5c-0.2-0.1-0.2-0.2-0.2-0.4
			c0-0.1,0.1-0.2,0.1-0.2c0,0,0,0,0,0C852.9,463,855.1,460.2,856.8,457.1z"/>
		<path class="st149" d="M856.8,461.5c-2.2-1.1,0.2-2.2,0-3.3c0.4-0.2,0.8-0.3,1.1-0.5C858,459.1,857.6,460.3,856.8,461.5z"/>
		<path class="st149" d="M857.9,457.7c-0.8-1.9,0.2-3.7,0-5.6C858.9,454,858.8,455.9,857.9,457.7z"/>
		<path class="st149" d="M858,452.2c-0.8-0.7-2.9-0.8-1.2-2.7C857.6,450.2,857.9,451.1,858,452.2z"/>
		<path class="st146" d="M851.9,466.4c0,0.2,0,0.4,0.1,0.6c-1.4,0.7-2.8,1.1-3.9-0.6C849.3,466.6,850.6,467.3,851.9,466.4z"/>
		<path class="st150" d="M900.5,549.4c-0.8,1.9-2.3,3.1-4.3,3.8c-2.8,1.1-3.1-0.8-3.5-2.7l0,0c-0.3-1.3-0.3-2.6,0-4
			c1.6,0.4,2.8,2.5,4.6,0.9c2.8-2,2.9-3.5,0.3-5.4c-0.6-0.4-1.4-0.7-0.9-1.6c0.5-0.7,1.2-0.6,2-0.4c2.5,0.7,3.8,3.7,2.8,6.7
			C901.2,547.6,900.9,548.5,900.5,549.4z"/>
		<path class="st151" d="M897.7,547.7c-1.7,2.1-3.2,1.3-4.8-0.7c-0.1,1.3-0.2,2.4-0.2,3.5c-1.2-4.4-0.2-7.5,3.1-10
			c2.1-1.6,4.4-1.2,5.6,1.2c1.4,2.7,1,5.4-0.9,7.8c-0.2-1.1,0.4-1.9,0.7-2.8c1-2.7-0.2-5.6-2.6-6.3c-0.6-0.2-1.2-0.3-1.5,0.2
			c-0.4,0.9,1,0.5,1.1,1.2c-0.1,0.1-0.2,0.2-0.2,0.3c-0.3,0.2-0.6,0.4-0.9,0.6c-1.5,0.8-1.7,2.3-1.7,3.7c0,1.3,1.8,0,2.2,1.1
			C897.6,547.4,897.7,547.5,897.7,547.7z"/>
		<path class="st151" d="M892.7,550.4c0.8,1.4,1.1,3.4,3.5,2.7C893.2,554.6,892.7,554.1,892.7,550.4z"/>
		<path class="st152" d="M410.7,582.7c-1.2,4.6-9.7,5.4-13.3,2.4c-0.8-0.7-1.1-1.6-0.3-2.3c1.2-1.1,2-2.8,3.7-3.5
			c1.7-0.8,3-2.7,5.4-1.6c0,1.2-1.1,1.5-1.7,2.1c-0.5,0.4-1.6,0.6-1.1,1.5c0.3,0.7,1.1,0.9,1.9,0.9c1.5,0,2.3-0.8,2.4-2.3
			c0.1-0.8-0.4-2.1,1-2c1.3,0.1,2.1,1,2.1,2.4C410.9,581.1,411.1,581.9,410.7,582.7z"/>
		<path class="st153" d="M410.7,582.7c-0.2-1.7,0.5-3.8-2.2-4.5c0.3,2.1,0.5,4.1-2.1,4.9c-2,0.7-4.3-1-4.4-1.6
			c-0.3-2.2,2.6-2.1,3.7-3.6c-2.1-1.2-3,1.6-4.8,1.4c2.2-3,5.3-2.5,8.3-1.9C411.3,577.9,411.8,580.1,410.7,582.7z"/>
		<path class="st154" d="M676.9,467.4c-2.6-0.9-4.8,0.4-7.1,1.1c0.1-1,1.3-1.3,1.6-2.1C673.4,465.9,675.4,465.4,676.9,467.4z"/>
		<path class="st155" d="M697.5,441.3c-0.7-1.1-0.9-2.5,0.3-3.1c3-1.5,5.8-3.8,9.4-3.6c2.4,0.1,4.6,0.7,6.1,2.9
			c-0.3,2.4-2.6,1-3.8,2c-0.7,0.6-1.9,0.4-2.4,1.6c-0.3,0.6-1.4,1-2.2,0.6C702.5,440.6,700.1,440.2,697.5,441.3z"/>
		<path class="st156" d="M735.2,574.9c-1.6-0.6-2.3-1.7-1.7-3.4c0.8-2.3-0.1-5,1.5-7.2c1.4,1,0.2,2.6,0.9,3.9
			c1.3-0.5,1.3-1.2,0.5-2.1c-0.6-0.7-0.8-1.6,0.1-2c2-0.8,3-2.5,4.3-4c0.6-0.7,1.4-1.5,2.6-1.1c0.7,1-0.2,1.9-0.4,2.8
			c-0.4,1.4-1.1,2.6-0.6,4.4c0.5,1.7-1.2,2.8-2.5,3.7c-1.4,1-2.8,1.9-2.1,4c-0.1,0.6-0.5,1-1,1.2
			C736.2,575.2,735.7,575.4,735.2,574.9z"/>
		<path class="st157" d="M743.4,559.1c-1,0.6-2.1,1.2-2.6,2.3c-0.9,1.8-2.2,3-4.7,3.4c1.8,1.3,3.3,2.5,0.9,4.2
			c-0.5,0.4-0.9,0.9-1.6,0.5c-0.6-0.3-0.5-0.9-0.5-1.4c0.1-1.2,0.1-2.5,0.2-3.7c0.7-2.7,2.4-4.6,4.9-5.9c1.4-0.1,2.7-1.6,4.1-0.2
			C744.1,558.8,744,559.2,743.4,559.1z"/>
		<path class="st158" d="M743.9,558.6c-1.3-1.4-2.7,0.4-4-0.1c1.5-1.2,3.2-1.3,5-1c1.2,0.4,2.3,0.9,1.4,2.5c-0.3,0.6-0.2,1.3,0,1.8
			c1.3,2.9,0.2,5.3-1.6,7.5c-2.1,1.6-4.2,3.2-6.1,5c-0.6,0.5-1.1,1.4-2,0.5c0.2-0.3,0.4-0.6,0.6-0.9c0.2-1.9,1.2-3.4,2.8-4.3
			c2-1.2,2.9-2.9,2.9-5.1C743,562.4,743.4,560.5,743.9,558.6z"/>
		<path class="st159" d="M744.4,568.9c1.4-2.3,2.8-4.7,1-7.4c-0.4-0.5-0.6-1.4,0-1.7c1.8-1.2,0.2-1.6-0.4-2.3c0.5,0,1,0.1,1.5,0.1
			c2.5,3.1,2.5,7.7,0.1,11c-0.7,1-1.5,2-2.3,3c-0.6,0.2-0.8,1.1-1.6,1C741.2,570.5,743.8,570.1,744.4,568.9z"/>
		<path class="st160" d="M744.4,568.9c-0.3,1.3-2.2,2-1.6,3.7c-1.6,0.9-3.2,1.9-4.9,2.7c-0.8,0.3-1.9,0.6-2.7-0.4
			c0.5,0,1-0.1,1.5-0.1c2.3-0.6,3-3.1,5-4.1C742.7,570.2,743.5,569.4,744.4,568.9z"/>
		<path class="st161" d="M566.6,496.9c4.4-1.4,8.4,0.4,12.3,1.8c1.4,0.5,0.8,1.6,0.2,2.4c-2.9,3.8-12.4,4.8-16.3,1.7
			c-0.3-2.3,0.4-3.4,2.6-3c2.3,0.4,4.3-0.2,6.3-0.7c-1.4,0.4-2.8-0.1-4.2-0.2C566.3,498.9,565.9,498,566.6,496.9z"/>
		<path class="st162" d="M566.6,496.9c0.1,0.8-0.1,1.8,1.3,1.4c1.6-0.5,3,0.1,4.5,1.3c-2.4,0.6-4.2,2.1-6.7,1.1
			c-2-0.8-2.8,0.4-2.9,2.2c-1.5-0.9-1.5-2.4-0.9-3.7C562.8,497.1,564.7,497,566.6,496.9z"/>
		<path class="st163" d="M864.4,582c2.8-2.7,6.7-1.8,9.9-3.1c0.7-0.3,1.3,0.6,1.4,1.4c0.3,1.8,0.3,3.6-1.4,4.9
			C870.8,584.4,867.5,583.6,864.4,582z"/>
		<path class="st164" d="M864.4,582c1.2-0.5,2.4,0.1,3.3,0.6c2.1,1.3,5,0.2,6.6,2.6c-0.2,0.4-0.4,0.8-0.5,1.2
			c-0.3,0.4-0.6,0.9-1.2,0.5c-1-1.7-2.1-1.2-3.3-0.2c-2.4,2-2.5,2-3.4-0.8c-0.2-0.6-0.5-0.2-0.7-0.3c-1.2-0.5-2.6-0.7-3.9-0.8
			c-0.2-0.2-0.2-0.5,0-0.7C862,583.2,863.1,582.4,864.4,582z"/>
		<path class="st165" d="M861.1,584.1c0,0.2,0,0.4,0,0.6c0,0.7-0.4,1.2-0.8,1.7c-2.3,3.4-2.2,4.2,0.5,7.1c0.3,0.3,0.4,0.6,0.3,1
			c-1.3,0.3-2.2-0.7-3.2-1.1C856.2,589.6,857.2,586.5,861.1,584.1z"/>
		<path class="st166" d="M872.6,587c0.4-0.2,0.7-0.4,1.1-0.6c0.1,1.1-1,1.6-1.2,2.6c-0.6,0.2-0.6,1.3-1.5,1.1
			c-0.7-0.1-1.8,0.4-2.1-0.6c-0.3-0.9,0.7-1.4,1.3-1.9C870.8,587,871.7,586.7,872.6,587z"/>
		<path class="st64" d="M892.2,561.9c4.2,3.1,3.5,8.2-1.5,11.9c-0.7,0.3-1.4,1.1-2.1,0.2c-0.6-0.8-0.1-1.5,0.4-2.2
			c0.4-0.4,1-0.8,1.4-1.3c-0.9,0.3-1.8,0.7-2.6,0.9c-0.2,0.1-0.5,0.1-0.7,0.1c-0.9,0.1-1.4-1.4-2.5-0.6c-0.5,0.4-0.9,1-1.3,1.5
			c-0.5,0.7-1.2,1.4-1.4,2.3c-0.1,0.3-0.2,0.7,0,0.8c2.4,1.6,1,2.7-0.4,3.9c-1.9,0.7-2.4-0.6-2.6-1.9
			C877.5,570.4,885.1,561.6,892.2,561.9z"/>
		<path class="st167" d="M889.5,572.2c-0.5,0.4-1,0.9-0.7,1.5c0.4,0.9,1.2-0.1,1.8,0.2c-0.8,0.7-1.5,1.4-2.3,2.1
			c-2.4,1-4.9,1.9-7,3.4c0.5-0.7,1-1.4,1.6-2.4c-2.2,0-3-0.8-1.7-2.6c0.1,0,0.2,0.1,0.3,0.1c1.5,0.8,2.5-0.4,4-0.9
			c-1-0.4-2-0.3-2.6-1.1c-0.1-0.1-0.1-0.2-0.2-0.3c0.1-0.7,0.4-1.3,1.1-1.6c0.6-0.5,1.1-0.2,1.6,0.3c0.5,0.5,1,0.8,1.6,0.3h0
			C888.3,571,889.7,569.9,889.5,572.2z"/>
		<path class="st168" d="M686.5,601.1c-0.5,0.8-0.4,2.3-1.6,2.3c-0.8,0-1.5-1.2-1.5-2.3c0-1.2,0.9-1.5,1.8-1.6
			C686.1,599.5,686.5,600.1,686.5,601.1z"/>
		<path class="st169" d="M700.8,602.8c3.8-4.6,8.4-6.6,14.4-4.8c0.9,0.3,2,0.3,2.9,0.5c0.4,0.8,2,1.3,0.7,2.5c-1.5-1.8-3,0-4.4,0.1
			c-0.2-0.2-0.3-0.5-0.4-0.7c-0.9-0.9-2.2-1.2-2.9-0.4c-1.5,1.7-4.9,1.2-5.1,4.4c-0.1,0.8-0.6,1.1-1.2,1.3c-1.2,0-2.8-1.5-3.4,0.9
			C699.7,605.5,700.7,604.1,700.8,602.8z"/>
		<path class="st170" d="M701.3,606.6c0-0.4,0-0.7-0.1-1.1c-0.1-0.7-0.1-1.6,0.5-2c0.8-0.5,1.2,0.4,1.6,1c0.3,0.5,0.7,0.8,1.3,0.8
			c2.3-1.9,5.2-0.3,7.6-1.3c0.7,0.2,1,0.5,0.5,1.2c-2.5,3.1-6,4.3-9,3.4C702.6,608.5,701.7,607.8,701.3,606.6z"/>
		<path class="st171" d="M712.8,605.4c-0.2-0.3-0.3-0.7-0.5-1c-0.1-0.1-0.1-0.2-0.2-0.3c-0.1-0.5,0-0.9,0.1-1.4
			c0.1-0.2,0.2-0.4,0.3-0.6c0.2-0.3,0.4-0.6,0.7-0.8c0.4-0.3,0.8-0.5,1.3-0.2c2.6-2.7,3.1-2.7,4.4,0
			C716.8,602.5,714.8,603.9,712.8,605.4z"/>
		<path class="st7" d="M753,479.5c1.1,0.4,1.8,1.1,1.7,2.3C753.9,481.3,753.4,480.5,753,479.5z"/>
		<path class="st172" d="M589.6,501.2c-1.2-0.8-2.9-0.4-4-1.4c0.9-0.7,1.9-1.4,3.2-1.2c4,0.6,5.8-2.3,7.8-4.8c1.8,2.2,0.9,4.8-2.1,6
			C592.9,500.4,591.2,500.7,589.6,501.2z"/>
		<path class="st173" d="M587.4,494.8c2.7-2.7,5.7-3.1,8.7-1.1c-1.1,1.1-2.6,1.1-4,1.4c-1.1,0.2-2.4-0.5-2.4,1.5
			c0,0.6-1.2,0.5-1.9,0.3C586.6,496.4,587.4,495.5,587.4,494.8z"/>
		<path class="st174" d="M224.1,591.8c0.6,0.4,1.1,0.7,1.7,1.1c0.6,0.6,0.7,1.5,1.1,2.2c0,0.4,0,0.7,0,1.1c-0.7,1-0.7,2.2-1.2,3.3
			c-3.6,4.8-9.9,6.2-14.2,3.3c0.2-3.6,2.1-4.9,5.3-3.6c2,0.8,3.8,0.9,5.7-0.1c2.2-1.1,2.5-2.4,1.4-4.9c-0.2-0.2-0.3-0.4-0.4-0.6
			C223.4,592.9,222.6,592,224.1,591.8z"/>
		<path class="st175" d="M224.1,593.5c2,2.1,1.8,4.6-0.6,6c-2.3,1.3-4.6,1.8-7.1,0.2c-1.8-1.1-3.9,0.3-4.8,3.1
			c-1.1-0.8-0.3-1.6,0.1-2.3c1.2-2.2,2.5-4.3,3.8-6.4c2.6-1.9,5.3-3.4,8.7-2.2C223.3,592.4,224,592.9,224.1,593.5
			c-2.6-0.2-4.6,0.7-6,2.9c-0.7,1-0.3,1.4,0.6,1.7c1.6,0.5,3.8-0.6,4.3-2.3C223.4,595.1,223.4,594.1,224.1,593.5z"/>
		<path class="st175" d="M225.8,599.5c-0.1-1.2,0-2.4,1.2-3.3c0.4,1.2-0.8,2.1-0.6,3.3C226.1,599.5,225.9,599.5,225.8,599.5z"/>
		<path class="st176" d="M764.6,496.4c0.9-0.5,1.5-0.6,1.7,0.7c0.1,1,0.9,2,0.3,3.2C765,499.5,764.4,498.1,764.6,496.4
			C764.6,496.4,764.6,496.4,764.6,496.4z"/>
		<path class="st177" d="M885.6,519.4c1,1.2,2.5,1.2,3.8,1.7c1.6,2,3.9,3.4,4.6,6.2c0.5,2,0.9,3.8-0.1,5.7c-0.3,0.4-0.7,0.9-1.1,0.6
			c-2.2-1.7-5.1-1.8-7.3-3.4c-0.8-0.6-1.7-1.2-2.1-2.1c-0.9-2.1-2.3-4.1-3.4-6.1c0-0.3,0.1-0.5,0.2-0.7c3.1-1.6,4-1.2,4.5,2.1
			c0.1,1,0.3,1.9,1,2.6c0.5,0.1,0.6-0.2,0.8-0.4c0.8-0.8,1.1-2.7,2.3-2.4c1.4,0.4,0.5,2,0.6,3.1c0.2,2,2.3,2.4,3.2,4
			c0.2-3.3-2.3-7.2-5.1-8.1c-2.3-0.8-4.4-2.2-6.6-3.2c-0.1-0.1-0.1-0.2-0.2-0.3C882.7,516.9,883.9,519.6,885.6,519.4z"/>
		<path class="st178" d="M880.2,521.5c1.3,1.8,3.1,3.2,3.5,5.6c0.1,0.7,0.9,1.3,1.5,1.8c2.5,2.2,5.9,2.4,8.6,4
			c-0.2,0.5-0.4,1.1-0.6,1.6c-0.4,0.2-0.7,0.4-1.1,0.6c-2.5-1.5-5.8-0.7-8.2-2.9c-1.4-1.3-2.6-2.7-3-4.6c-0.4-2.2-1.3-4.2-2-6.3
			c-0.1-0.2,0-0.3,0.1-0.4C879.8,520.7,880,521,880.2,521.5z"/>
		<path class="st179" d="M881.8,527.5c0.9,3.8,3.8,6,7.8,5.4c2.1-0.3,1.5,1.9,2.7,2.2c-2,1.7-4-0.1-6-0.1c-1.4-1.3-2.9-2.6-4.3-3.9
			c-0.4-0.9-0.8-1.8-1.2-2.6C880.9,528,880.9,527.3,881.8,527.5z"/>
		<path class="st180" d="M881.8,527.5c-0.4,0.3-0.7,0.7-1.1,1c-1.4-2.2-1.7-4.7-1.7-7.2C881,523,881.4,525.2,881.8,527.5z"/>
		<path class="st177" d="M880.2,521.5c-0.3-0.2-0.7-0.4-1-0.6c-0.2-1.3,0.8-1.6,1.6-2.2l0.1,0.2C881.5,520,880.9,520.7,880.2,521.5
			L880.2,521.5z"/>
		<path class="st181" d="M751.4,466.3c-0.5,0.6-1.3,1-1.4,1.9c-0.8,0.3-1.6,0.6-2.3,0.9c-3.3-0.8-5.9-2.6-7.2-5.7
			c-1.1-2.5-3.3-4.6-3.7-7.4c2.6-0.8,3.6,0.9,4.6,2.8c0.2,3.2,3,3,5.1,3.8c0.2,0.1,0.5,0.2,0.7,0.4c0.8,0.9,1.6,1.9,3.1,1.5
			c0.7-0.2,1.1,0.3,1.4,0.9C751.5,465.6,751.4,466,751.4,466.3z"/>
		<path class="st182" d="M740.6,459.3c-0.6-2-1.8-3.2-4-3.3c1-1.2,2.6-1,3.9-1.5c0.8,0.3,1.5,0.6,2.3,0.9c-1.1,1.5-1.2,2.8,0.7,3.9
			c0.6,0.3,0.9,1.1,0.3,1.8C742.2,461.5,741.1,460.9,740.6,459.3z"/>
		<path class="st183" d="M671.9,483.8c-0.5-1.5,0.3-3.2-1-4.6c-0.7-0.1-0.4,2.2-1.7,0.8c0-0.2,0-0.3-0.1-0.5c0.5-2,3.2-3,2.3-5.5
			c1.9-0.6,3.4,0,4.9,1.1c-0.1,0.9-0.4,1.6-1.1,2.2c-0.5-0.5-1.2-0.9-1.2,0.2c0,0.9,0.4,1.9,0.7,2.8
			C675.8,484.1,675.5,484.4,671.9,483.8z"/>
		<path class="st184" d="M838.7,597.2c0-0.3,0.1-0.5,0.4-0.5c1.1-1,1.7-0.5,2.1,0.7c0.1,0.2,0.1,0.5,0.2,0.7
			c1.8,2.1,3.6,2.3,6.3,0.4c2-1.4,1.3-3,0.1-4.6c-0.3-0.4-0.6-0.9-0.3-1.5c3-0.3,5.1,1.9,4.5,4.7c-0.2,1-0.5,1.9-0.7,2.9
			c-2,2.4-4.7,3.9-7.7,4.9c-2.4-0.4-5.1,0.7-7.1-1.4c-0.6-1.3,0.3-2.2,0.9-3.1C838.1,599.4,838.6,598.4,838.7,597.2z"/>
		<path class="st185" d="M841,597.8c-0.3-0.8-0.7-1.6-1.8-1.2c0.4-0.7,0.8-1.4,1.3-2.1c2.1-1.5,4.3-2.9,7.1-2.2
			c0.7,0.8,1.8,1.6,1.9,2.5c0.2,1.5,1.1,3.3-1.5,4.3c-4.1,1.6-6.3,1.7-7.4-0.5C840.5,598.6,840.8,598.1,841,597.8
			c1.1,0.4,2.3,0,3.4,0.4c0.8,0.3,1.6-0.1,2.3-0.6c0.8-0.7,1.5-1.6,0.6-2.5c-0.8-1-1.8-0.5-2.5,0.3c-0.8,0.8-1.4,1.9-2.5,2.4
			C841.8,598.1,841.4,598.2,841,597.8z"/>
		<path class="st186" d="M718.2,444c2.8-2.4,4.6-2.5,8.2-0.5c0.8,1,0.3,2.5,1.5,3.6c0.9,0.9-1.2,0.2-1,1.5c0.6,0.6,2.5,0.9,2.5,2.5
			c0,1-1.1,1-1.9,1c-1.8-0.6-3.8,0-5.5-1.1C719.1,449.7,717.8,447.3,718.2,444z"/>
		<path class="st187" d="M728.6,444.5c2.7,0.7,3.4,3.5,5.3,5.1c1.1,1.2,0.9,2.1-0.6,3c-1.8,1-3.6,1-5.4,0.3c1.8-0.2,3.2-0.3,2.3-3.1
			C729.7,448,729.8,446.1,728.6,444.5z"/>
		<path class="st188" d="M722.1,451.1c1.7,0.9,4.1-1.5,5.5,1.1c0,0.2,0,0.4,0,0.6c-1.5,0.3-2.9-0.6-4.3-0.7
			C722.8,451.8,722.5,451.5,722.1,451.1z"/>
		<path class="st175" d="M226.9,595.1c-0.7-0.5-1-1.3-1.1-2.2C226.8,593.3,226.9,594.2,226.9,595.1z"/>
		<path class="st189" d="M431.2,498.1c1.6-1.1,3.3-1.5,5.2-1.2c0.4,0.1,1.1,0,1.3-0.3c1.2-2,3.5-2.5,5.1-3.9c1.4,0.9,1.2,2,0.5,3.2
			c-0.4,0.7-1.1,1.2-1.1,2c-3.1,1.3-6.3,2.3-9.7,1.1C432,498.8,431.5,498.6,431.2,498.1z"/>
		<path class="st79" d="M387.7,592.3c1-1.1,3.2-1.5,1.8-3.9c-0.5-0.9,0.9-0.8,1.5-1c2.4,1.9,2.5,4.9,0.2,6.9
			c-0.7,0.6-1.5,0.9-2.3,1.4c-1.5,0.6-2.3,0.3-1.7-1.5C387.4,593.5,387.5,592.9,387.7,592.3z"/>
		<path class="st190" d="M387.7,592.3c0.3,0.6,0.6,1.2,0.1,1.9c-1,1.5,0.3,1.2,1.1,1.4c-0.4,0.3-0.8,0.6-1.2,1
			c-1.7,0.2-3.3,0.8-4.9,1.5c-0.9,0.4-1.7,1.7-2.8,0.7c-1.1-1-0.4-2.2,0.1-3.2c1.2,0.2,2.4,0.4,3.7,0.4
			C386.5,596.1,386.4,593.5,387.7,592.3z"/>
		<path class="st191" d="M872.6,587c-1.2,0.7-2.5,1.2-3.3,2.4c0.5,0.2,1.1,0.5,1.6,0.7c-0.8,0.9-1.5,1.8-2.3,2.7
			c-2.4,1.1-4.7,2.6-7.5,1.7c-4.5-3-4.5-6.2,0-9.8c1-0.7,1.9-1.3,3-0.2c0.9,0.9,2,0.5,2.8-0.3c0.5,0.6-0.1,0.8-0.3,1.1
			c-0.5,0.7-0.5,1.1-0.3,2.1c0.9,0.7,1.3-0.5,1.9-1c0.5-0.5,0.9-1,1.6-1.4C871.9,584.1,872.8,584.6,872.6,587z"/>
		<path class="st192" d="M838.7,597.2c0.5,1.3,0.8,2.4-0.9,3.3c-0.9,0.5-1.4,1.7-1.3,2.8c-1.7-1.8,0.9-2.8,0.8-4.4
			C837.8,598.4,838.3,597.8,838.7,597.2z"/>
		<path class="st20" d="M748.7,458.3c0.8,1.2,1.6,2.4,2.4,3.6c-0.1,0.1-0.2,0.2-0.2,0.3c-0.8,3-1.8,3.2-4.2,0.9h0
			c-0.6-0.4-1.4-0.7-1.4-1.6c0.2-1.2-1-1.8-1.3-2.7c-0.4-1.2-0.7-2.3,1.2-2.2C746.3,457.1,747.5,457.7,748.7,458.3z"/>
		<path class="st193" d="M745.1,456.5c-2.2,1.2-0.4,2.2,0.3,3.1c0.6,0.7,1.6,1.1,0.1,1.9c-0.7,0.3-1.2,0-1.6-0.6
			c-0.1-0.9-0.7-1.2-1.4-1.5c-1.2-0.5-2-1.6-2.1-2.6c-0.1-1.5,1.9-0.3,2.4-1.4C743.7,455.6,744.5,455.8,745.1,456.5z"/>
		<path class="st194" d="M746.6,463.1c1.7,1.2,3.2,1.5,4.2-0.9c0.2,1,0.4,2,0.6,3.1C749.9,464.5,747.2,466.2,746.6,463.1z"/>
		<path class="st30" d="M523.5,508.4c-0.5,0.4-0.8,1.1-1.6,1.1c-1.2-1.3-1.7-2.8-0.7-4.5c0.2,0.5,0.3,1.3,1,0.9
			c2.6-1.6,2.6,0.3,2.9,2C524.6,507.8,524.3,508.6,523.5,508.4z"/>
		<path class="st195" d="M502.8,576.5c0.3-1.8,1.2-2.9,3.1-3.2c1.9-0.3,3.2,0.4,4.3,2c2.1,3.1,2.9,6.5,2.4,10c-0.3,1.8,1.1,4-1,5.5
			c-2.4-2.5-3.9-5.3-4.4-8.7c-0.2-1.6-1.3-2.5-2.6-3.3C503.8,578.4,503.5,577.3,502.8,576.5z"/>
		<path class="st196" d="M502.8,576.5c0.3-0.1,0.7-0.2,1-0.3c0.5,2.5,3.7,2.6,4.2,5.4c0.4,2.4,0.3,5.3,3,7c0.5,0.3,0.4,1.5,0.6,2.3
			c-0.5,0.8-1.2,0.6-1.9,0.3c-3.8-1.6-7.9-7.8-7.9-11.9C501.7,578.2,502.1,577.3,502.8,576.5z"/>
		<path class="st197" d="M509.8,497.5c2.7,4.3,6,8.4,4.4,14.1c-0.3,1.1-0.6,2.1-1.5,2.8c-0.8,0.5-1.2,1.4-2,1.8
			c-0.3,0.1-0.5,0-0.8-0.1c-1.3-1.5-2.3-3.2-3.5-4.8c-1.4-1.9-1.7-4.2-1.1-6.5c0.4-1.6,0.5-3.2,0.2-4.8c-0.1-0.4-0.1-0.8,0-1.2
			c0.1-0.3,0.3-0.5,0.5-0.6C507.3,497.5,508.4,496.7,509.8,497.5z"/>
		<path class="st198" d="M510.6,516.1c0.2,0,0.3-0.1,0.4-0.2c0.2-0.2,0.4-0.1,0.6,0.1c-2.4,2.1-3.7,2.2-6.1,0.1
			c0.3-1.4-1.1-1.5-1.7-2.2c-2-3.6-2.1-7.3-0.5-11.1c1.1,0.8,1.2,1.9,1.3,3.1c0,0.7,0,1.4-0.1,2c-0.4,3,1.2,4.8,3.8,6
			C509.4,514.4,508.8,516.5,510.6,516.1z"/>
		<path class="st199" d="M503.9,506.2c-0.2-1.1-0.4-2.2-0.6-3.4c0.1-1.8,1.6-3,1.8-4.7c0,0-0.1-0.1-0.1-0.1s0.1,0.1,0.1,0.1
			c0.3-0.1,0.6-0.1,0.9-0.2c0.2,0.1,0.2,0.3,0.2,0.4c0,0.1-0.1,0.2-0.1,0.2l0,0c0,2.6-0.3,5.1-1.4,7.5
			C504.5,506.4,504.2,506.4,503.9,506.2z"/>
		<path class="st200" d="M506.1,498.6c0-0.2,0-0.4-0.1-0.6c1.2-1,2.4-1.6,3.8-0.5C508.5,497.5,507.3,497.8,506.1,498.6z"/>
		<path class="st201" d="M503.8,513.9c1.1,0.3,2.5,0.4,1.7,2.2C504.7,515.5,504,514.9,503.8,513.9z"/>
		<path class="st202" d="M511.6,516c-0.2,0-0.4-0.1-0.6-0.1c0.5-0.7,0.9-1.3,1.8-1.5C512.7,515.2,512.1,515.6,511.6,516z"/>
		<path class="st75" d="M548.2,443.9c-0.7-0.2-1.4-0.4-2-0.7c-1.8-0.6-1.8-1.9-0.9-3.2c3.3-4.5,14.5-5.6,18.7-1.9
			c2.3,2,1.8,5.5-0.8,7.1c-4.5,2.6-8.7,1.2-13-0.5C549.4,444.5,549,443.8,548.2,443.9C548.1,443.9,548.2,443.9,548.2,443.9z"/>
		<path class="st203" d="M501.8,559.1c-2.4-3.6-0.2-7,0.7-10.3c0.2-0.8,1.8-1.7,2.3-0.4c1.7,3.8,5.4,6.4,6.8,10.4
			c0.4,0.9,0.7,1.9,0.6,2.9c-0.3,2.1-1.1,3.9-3.2,4.7c-2.5,0.9-4-0.9-5.7-2.3c-0.7-0.8-1-1.9-1.6-2.7l0,0
			C501.4,560.5,502.6,559.8,501.8,559.1z"/>
		<path class="st204" d="M501.7,561.3"/>
		<path class="st205" d="M541.5,505.5c-0.1-0.2,0-0.3,0.1-0.4c1.6-0.6,3.6-0.2,4.5-1.7c-0.8,0-1.7,1.6-2.9,0.6
			c-0.6-0.5,0.2-1.1,0.4-1.6c2.1-2.8,4.8-4.7,8.5-4.4c3.1,0.2,4.1,2.1,3.1,5c-0.8,1.1-1.8,2.1-3.1,2.6c-0.4,0.1-1.1,0.5-1.2,0.1
			c-1.1-2.7-2.3-0.3-2.9,0.2c-1.5,1.2-2.9,1.9-4.9,1.9C541.3,507.6,540.9,507,541.5,505.5z"/>
		<path class="st206" d="M541.5,505.5c0.7,2.1,2.6,2.6,4.5,0.9c1.2-1.1,2.3-2.3,3.9-2.8c0.8-0.3,1.5-1,2.1-0.1
			c0.7,0.9-0.9,0.9-0.8,1.8c1.8-0.1,2.7-1.6,4.1-2.3c-1.1,2.7-3.4,3.5-5.9,4.1c-2.1,0.5-4.2,0.7-6.4,0.9c-0.6,0.1-1.4,0.8-1.9-0.1
			C540.5,507,540.6,506.2,541.5,505.5z"/>
		<path class="st207" d="M543.7,502.4c0.4,0.3-1,1.9,0.8,1.1c1.2-0.5,2.4-1,3.9-1.7c-2.1,3.3-4.1,4.1-6.9,3.4
			C542,503.9,542.7,503,543.7,502.4z"/>
		<path class="st208" d="M523,446.8c-0.5,0-1.1,0-1.6,0c-0.4-0.2-1-0.3-1.2-1c-0.8-2.2-1.3-4.3,0.6-6.2c0,0,0,0,0,0
			c1.8-0.3,3.5-1.4,5.5-1c0.1,0.8,0,1.6,0.2,2.5C527,443.7,525.3,446.2,523,446.8z"/>
		<path class="st209" d="M523,446.8c2.3-1.6,3.5-3.7,2.3-6.6c-0.4-0.9,0.9-0.9,1-1.6c0.2,0,0.4,0,0.6,0c1.7,1.1,2,2.6,0.9,4.4
			c1.5,0.3,2.5-0.4,3.7-0.2c1.6,0.3,2.8,0.8,1.8,2.7l0.2,0.2c-0.2,0.2-0.3,0.4-0.5,0.6c-1.5-0.4-2.8-2.2-4.2,0.7
			C528.3,448,524.9,447.7,523,446.8z"/>
		<path class="st210" d="M533.2,445.6c0.2-2-0.9-2.4-2.6-2.1c-1,0.2-1.9,0.4-2.9,0.7c-0.4,0.1-0.9,0.4-1.2-0.1
			c-0.3-0.4-0.2-1,0.2-1.2c2-1.4,0.6-2.8,0.1-4.3c2.4-0.1,4.5,0.2,4.8,3.3c0,0.3,0.6,0.8,1,0.9C535.2,443.2,533.9,444.4,533.2,445.6
			z"/>
		<path class="st211" d="M513.3,601c-0.1-0.3-0.1-0.6-0.2-1c1.8,0.2,3.6,0.5,4.8-1.5c0.4-0.7,1.6-0.8,2.5-0.5
			c1.1,1.3-0.2,1.3-0.7,1.7c1.2-0.1,2.2,0.5,3.1,1.4c1.1,1,1.2,2-0.3,2.7c-1.6-0.6-3.3-1.3-5.1-0.4
			C515.7,603.2,514.6,601.8,513.3,601z"/>
		<path class="st212" d="M522.5,603.8c0.8-1,1.1-1.8-0.4-2.4c-1-0.4-1.9-0.9-2.8-1.4c-0.4-1,1.5-0.5,1-1.6c-0.7-1.1-0.9-2.2-0.5-3.4
			c1.6,0.3,2.7,1.2,3.8,2.3c0.2,1.5-0.3,3.1,0.5,4.6C524.7,603.3,523.8,603.9,522.5,603.8z"/>
		<path class="st213" d="M535.4,600.4c-2.1,0.1-2.5-0.9-1.7-2.7c1-1.9,3,0.5,4-1c1.7-2.1,2.9-4.7,5.4-6c-0.2-0.7-0.4-1.5-0.5-2.2
			c1.8-0.5,3.2,0.1,3.9,1.9c0.7,2,0,3.7-1.4,5.1c-0.6,0.6-1.4,1.1-2.1,1.7C540.5,598.2,537.5,598.3,535.4,600.4z"/>
		<path class="st214" d="M543.2,590.8c0,1-0.7,1.6-1.5,2.1c-1,0.6-1.7,1.2-1.8,2.4c-0.1,1.3-1.1,1.5-2.1,1.5
			c-0.9-0.2-2.8,0.5-1.7-1.7c0.9,0.2,1.6,0.2,1.1-1.1C539.1,592.7,540.7,590.9,543.2,590.8z"/>
		<path class="st215" d="M537.2,594c0.6,0.1,1.4-0.1,1.5,0.8c0.1,0.6-0.3,1.1-0.8,1.3c-0.9,0.3-1.6,0.2-1.8-0.9
			C536.4,594.7,536.8,594.4,537.2,594z"/>
		<path class="st216" d="M503.3,542.3c-3.2-3.3-2.7-7.4-2.6-11.5c0.8-2,1.4-4.1,3.1-5.6c1.1-1,2.3-1.8,3.9-1.5
			c0.1,0.1,0.2,0.3,0.2,0.4c0,0.2,0,0.2-0.1,0.2c-0.4,0.5-1,0.7-1.6,0.9c-1.4,0.5-0.8,1.2-0.2,1.9c0.2,0.5,0.2,1,0.1,1.5
			c-0.6,2.1-1.8,1.8-3.1,0.5c-1.3,3.3-1.2,6.4,0,9.5C503.4,539.8,504.3,541,503.3,542.3z"/>
		<path class="st217" d="M507.7,524.2c0-0.2,0-0.4,0-0.5c3.4-0.3,5.3,1.5,5.4,5c0.1,2.2-0.8,4.2-1.2,6.3c-0.7,0.8-1.3,1.6-2,2.4
			c-0.8-0.9-0.2-1.7,0.1-2.5c0.2-0.7,0.6-1.3,0.8-2C512.4,528.1,512,526.9,507.7,524.2z"/>
		<path class="st218" d="M507.7,524.2c3.7,0.3,5.3,2.6,4.6,6.3c-0.5,2.4-1.9,4.5-2.4,6.9c-0.8,2.2-2.7,3.8-3.8,5.8
			c-0.7,1.4-2.1,0.2-2.8-0.9c-0.7-2.9-2.5-5.6-2.1-8.8c0.2-2,0.4-3.9,1.2-5.1c1.6-1.1,1.3,3.7,3.1,0.2c0.4-0.7,0.9-0.8,1.6-0.4
			c0.5,0.3,0.7,1.5,1.7,0.7c0.8-0.7,1.1-1.4,0.4-2.3c-0.2-0.2-0.3-0.3-0.5-0.5c-1.5-1.5-1.9,1.3-3.1,0.9c-0.6-0.1-1.2-0.2-2-0.3
			C504.7,525.1,505.9,524.2,507.7,524.2z"/>
		<path class="st219" d="M519.8,595c0.8,1,0.6,2.2,0.5,3.4c-1.4,0.4-3,0.3-3.2,2.4c-0.1,0.9-1,0.9-1.7,0.6c-0.8-0.4-1.5-0.9-2.3-1.3
			c-0.5-0.4-0.5-1-0.6-1.5c0.9-3.7,1.3-4,6.2-4C519.1,594.7,519.4,594.8,519.8,595z"/>
		<path class="st220" d="M520.8,439.6c-0.9,2-0.3,4.1-0.6,6.2C517.9,443.2,518,441.5,520.8,439.6z"/>
		<path class="st221" d="M369.5,446.3c-2.6-0.2-4.1-1.9-4.6-4.2c-0.5-2,0.5-3.5,2.5-4.1c1.1-1.1,2.7-0.4,3.9-1.2
			c0.4-0.1,0.8-0.1,1.2,0c1,0.3,1.7,1.1,2.2,1.9c0.9,1.5,1.6,3,3.9,2.6c0.7-0.1,1.3,0.6,1.3,1.4c0.1,0.9-0.4,1.7-1.2,2
			C375.8,445.8,372.9,447.3,369.5,446.3z"/>
		<path class="st222" d="M372.5,437c-0.4,0-0.8,0-1.1,0c-0.3,0.1-0.5,0.1-0.6-0.2c4.8-1.5,9,0.7,13.2,2.3c0.8,0.3,0.6,1.1,0.3,1.9
			c-0.9,2.1-2.7,3-4.7,3.6c-0.4-0.9,0.8-2.2,0.2-2.5c-2.3-0.9-2.9-3.7-5.3-4.4C373.8,437.6,373.1,437.3,372.5,437z"/>
		<path class="st223" d="M372.5,437c2.8-0.4,4.9,0.4,5.8,3.4c0.1,0.2,0.3,0.6,0.5,0.6c3.1,0.5,1,2.3,0.9,3.6
			c-3.1,1.9-6.4,2.9-10.1,1.6c1.7-0.1,3.4-0.2,5.1-0.4c-0.4-0.7,2.6,0.6,0.6-1c0.7-0.2,1.5-0.7,2.1-0.6c1.3,0.2,2.1-0.2,2-1.4
			c-0.1-1.6-1.5-0.9-2.3-1c-0.4,0-0.9,0.1-1.3,0.2c-0.7,0.1-1.6,0.7-1.9-0.3c-0.3-0.9,0.9-0.9,1.5-1.5
			C374.2,439.5,373.3,438.3,372.5,437z"/>
		<path class="st223" d="M370.7,436.9c0.2,0.1,0.4,0.1,0.6,0.2c-1.3,0.3-2.6,0.6-3.9,1C368.3,436.8,369.5,436.9,370.7,436.9z"/>
		<path class="st224" d="M354.6,496.2c2.5-0.5,2.2,2.2,3.5,3c-0.1,1.7,1.9,2.5,1.9,4.2c-1.2,0.5-1.5-0.7-2.2-1.2
			c-0.3-0.2-0.7-0.4-0.9,0c-0.3,0.4-0.2,1,0.3,1.1c2.8,0.4,2,1.9,1.1,3.5c-0.5,0.8-0.2,1.8-0.2,2.7c0.1,2-0.3,3.9-1.5,5.6
			c-2.3-4.1-5.9-7.9-3.7-13.1c0.9-2.1-1.1-3.1-0.8-4.7C352.6,496.1,353.6,496,354.6,496.2z"/>
		<path class="st225" d="M352.3,497.5c1.8,1.4,2.2,3,1.1,5.2c-1.3,2.6-0.5,5.2,1.3,7.3c1.3,1.5,1.1,3.4,2,4.9
			c0.2-0.2,0.3-0.1,0.4,0.1c-0.4,1-1.3,1-2.1,1.1c-1,0.2-1-0.6-1-1.2c0-0.9-0.4-1.5-1.1-2c-3.4-2.6-4.2-5.9-2.8-9.8
			c0.5-1.5,1.2-3,1.2-4.7C351.3,497.9,351.5,497.3,352.3,497.5z"/>
		<path class="st226" d="M357.1,514.9c-0.1,0-0.3-0.1-0.4-0.1c0.3-2.4,1-4.7,0.5-7.1c-0.3-1.3,1.4-2,1.4-3.2
			c-0.7-1.2-2.8,1.2-2.9-1.1c-0.1-1,0.2-2.3,1.2-2.8c1-0.5,1.1,0.9,1.7,1.3c0.6,0.4,1,1,1.5,1.5C361.6,508.8,360.8,512,357.1,514.9z
			"/>
		<path class="st227" d="M352.3,497.5c0,2.9-1.4,5.4-2,8.1c-0.5,2.3,0.3,4.5,2.1,5.8c1.8,1.2,2.6,2.6,2.6,4.7
			c-1.3,0.3-2.6,0.4-3.3-1.1c-0.2-0.4,0-0.6,0.3-0.8c0.6-0.9-0.4-0.4-0.6-0.7c-0.4-0.2-0.9-0.4-1.3-0.7l0,0
			c-1.2-3.4-1.2-6.9-1.1-10.4c0.2-1.8,1.4-3.3,2.3-4.9c0.5-1,1.7-2.5,3.4-1.2C353.7,496.4,352.7,496.4,352.3,497.5z"/>
		<path class="st228" d="M349,502.3c0.5,3.5,1.4,6.9,1.1,10.4c-1.8-1.5-1.6-3.7-1.7-5.7c0-1.5,0.1-3.1,0.1-4.6
			C348.7,502.4,348.8,502.4,349,502.3z"/>
		<path class="st228" d="M350.1,512.7c0.5,0,1.1,0,1.6,0c0.6,0.4,1.2,0.8,0.5,1.6c-0.2,0.2-0.4,0.4-0.6,0.5
			C351,514.4,350.4,513.7,350.1,512.7z"/>
		<path class="st229" d="M424.8,500.2c-0.2,0.4-0.5,0.6-1,0.6c-3.1,1.3-6.5,0.6-9.6,1.5c-0.8,0.2-1.4,1.6-2.6,0.7
			c-1.4-0.2-2.6-0.8-3.2-2.2c0.6-1.6,1.9-2,3.3-1.6c2.2,0.6,4-0.1,6.5-1c-2.4-0.7-4.3-1-6.4-0.7c-1,0.1-2.2,0.5-3-0.6
			c4.4-2.2,8.8-2.6,13.3-0.1c0.3,0.2,0.7,0.1,1.1,0.2C424,497.9,426,498.2,424.8,500.2z"/>
		<path class="st230" d="M408.8,496.9c2.6,0.2,5.3-0.9,8,0.1c0.9,0.3,1.9,0.4,3,1.4c-2.8,0.8-5,3.1-8.2,1.5c-1.1-0.6-2.2,0.6-3.2,1
			C407.3,499.4,407.5,498,408.8,496.9z"/>
		<path class="st231" d="M411.6,503c3.8-2.3,8-2.4,12.2-2.2c-0.4,0.3-0.8,0.6-1.2,0.9C419,503.1,415.4,504.3,411.6,503z"/>
		<path class="st232" d="M424.8,500.2c0.4-1.6-1.7-1.8-1.6-3.2c2.2,0.1,3.7,0.7,2.2,3.2l-0.3,0L424.8,500.2z"/>
		<path class="st233" d="M377.9,503.5c1.2,1,2.4,2.1,3.7,2.8c1.8,0.9,1.4,1.6,0.1,2.6c-0.7,0.2-1.3,0.5-2,0.7
			c-0.5,0.1-1.5,0.4-1.5,0.3c-1.4-3.5-5.2-1.9-7.4-3.7c-1.3-2.2-1.6-0.4-2.2,0.5c0,0.6-0.3,1-1,1.1c-1-1.7-1.2-3.5,0-5
			c1.2-1.6,3.1-1.6,4.9-1.3C374.6,501.7,376.2,502.8,377.9,503.5z"/>
		<path class="st234" d="M368.7,506.8c-0.6-1-0.5-1.9,0.4-2.5c0.3-0.2,0.9-0.4,1.2-0.3c0.8,0.5,1.1,1.3,0.6,2.3
			C370.1,506.4,369.4,506.6,368.7,506.8z"/>
		<path class="st33" d="M370.3,508.9c-0.1-0.5-0.7-1-0.1-1.4c0.3-0.2,0.8-0.1,0.9,0.2C371.3,508.4,370.7,508.6,370.3,508.9
			L370.3,508.9z"/>
		<path class="st235" d="M358.9,487.1c-0.9-0.1-1.4,0.7-2.2,1c-0.9,0.3-1.9,1.7-2.9,0.6c-0.8-0.8-1-2.2-0.8-3.3c0.2-1.2,1.2-2,2.5-2
			c3.2-0.1,4.7-2.3,6.1-4.8c0.5-0.9,0.2-2.8,2.2-2.4c0.2,0.5,0.2,1.1,0,1.6c-0.5,1.9-1,3.8-1.6,5.6
			C361.5,485.1,360.4,486.3,358.9,487.1z"/>
		<path class="st45" d="M362.2,483.5c0-2,0.7-3.9,1.6-5.6C364.1,479.9,363.3,481.8,362.2,483.5z"/>
		<path class="st236" d="M389.3,589.8c-1.4,1.8-3.7,2.5-4.1,4.9c-0.1,0.7-1.7,0.7-2.7,0.8c-0.5,0-0.7-0.4-0.7-0.9c0-1,0.6-1.8,1.5-2
			C385.4,592,386.6,589.7,389.3,589.8z"/>
		<path class="st237" d="M359.7,599.5c-1.4-1.9-2.4-3.9-0.4-6c1.4-1.4,4.6-1.1,6.6,0.5c0.2,0.1,0.4,0.3,0.5,0.5
			C365.2,598.5,362.8,600.3,359.7,599.5z"/>
		<path class="st238" d="M366.5,594.6c-0.2-0.2-0.3-0.3-0.5-0.5c0.5,0,1,0,1.5,0c3.1,1.8,5,4.7,7.1,7.4c-2.3,2.4-5.1,2.2-7.9,1.2
			c1.1,0,2.3,0,2.8-1.2c0.6-1.3-0.7-1.6-1.3-2.3c-0.2-0.2-0.4-0.4-0.6-0.6c0.8-0.4,2.1-0.7,0.3-1.6
			C366.7,596.6,367.4,595.2,366.5,594.6z"/>
		<path class="st239" d="M418.8,571.6c1.5-0.5,2.8,0.2,4,0.9c-3.1,2.1-4.4,2.2-5.1,0.2C418.1,572.4,418.4,572,418.8,571.6z"/>
		<path class="st240" d="M753.2,543.8c-0.9-2.6,0-4.7,2.1-7.1c0.3,2.2,0.2,3.5-1,4.7C753.6,542.1,753.2,542.9,753.2,543.8
			C753.2,543.8,753.2,543.8,753.2,543.8z"/>
		<path class="st241" d="M354.5,482c-0.5-2.2,0.3-4.1-0.3-6.1c-0.3-1,0.4-2.2,1.4-2.7c1-0.5,2.1-0.4,3,0.4c0.8,0.7,1.5,1.5,1.1,2.8
			c-0.3,0.9-0.2,2-0.5,2.9c-0.3,0.7-0.6,1.8-1.8,1.7C356.2,480.8,355.4,481.3,354.5,482z"/>
		<path class="st235" d="M352.5,484.1c-0.1-1.6-0.2-2.4-0.3-3.6C353.6,481.5,353.6,482.3,352.5,484.1z"/>
		<path class="st242" d="M360.5,462.6c-0.6,1.8-1.3,0.8-1.7-0.1c-0.9-1.9-0.8-3.9-0.1-6.3c2.1,1.7,0.4,4.2,1.7,5.8
			C360.5,462.2,360.5,462.4,360.5,462.6z"/>
		<path class="st243" d="M508.4,482.6c-0.5-1.7,0-3.5,0-5.3c0-1.4,0-3.3,2.3-3.3c1.3,0,2.8,2.6,2.9,4.1
			C513.7,481.8,510.8,481.9,508.4,482.6z"/>
		<path class="st52" d="M514.3,462.6c0-1.1,0.2-2.3,0-3.4c-0.3-1.8,0.5-2.5,2.2-2.6c-2.1,1.6-1.6,3.9-1.6,6
			C514.6,462.6,514.5,462.6,514.3,462.6L514.3,462.6z"/>
		<path class="st244" d="M514.3,462.6c0,0.8-0.1,1.5-0.1,2.6c-2.8-2.1-1.9-4.7-2-7.1c0-0.4,0.3-0.7,0.7-0.6c0.5,0.1,0.7,0.5,0.8,1
			C514,459.8,513.2,461.3,514.3,462.6C514.3,462.6,514.3,462.6,514.3,462.6z"/>
		<path class="st245" d="M848.6,474c0.4-0.1,0.9-0.4,1.3-0.3c5.5,2,10.7,9.8,10.6,16c-0.5,0.9-1.1,1.8-1.6,2.8
			c-0.9,0.2-1-0.6-1.2-1.1c-0.4-0.8-0.7-1.8-1.5-2.2c-2.3-1.1-3.1-3-3.2-5.4c-0.2-0.4-0.4-0.7-0.6-1.1c-1.2-2.2-1.6-4.9-3.7-6.7
			C848.2,475.6,848.1,474.7,848.6,474L848.6,474z"/>
		<path class="st63" d="M848.6,474c0,0.7,0,1.5,0.7,1.9c2.8,1.5,3.1,4.1,3.1,6.8c-0.8,0.1-1.5-1.4-2.3-0.1c-0.5,0.8-1.1,1.6-0.4,2.7
			c1.6,2.5,0.6,6,3.4,8.1c-3.4-1.9-6.5-8.3-5.3-12C848.7,478.8,847.4,476.3,848.6,474z"/>
		<path class="st63" d="M853,483.8c0.7,2.1,1.2,4.3,4,4.6c0.7,0.1,0.9,0.8,0.9,1.5c0,1,0.3,1.9,1.1,2.6c-2,0.4-2.8-1.6-3.8-2.5
			C853.6,488.5,852.2,486.4,853,483.8z"/>
		<path class="st246" d="M683.8,577.6c-1.3-3-0.6-5.4-0.2-7.9c0.1-0.8,0.6-2,1.7-1.7c1.3,0.3,0.3,1.4,0.2,2
			C685.1,572.4,685.4,575,683.8,577.6z"/>
		<path class="st247" d="M881.3,421.7c-0.6-0.1-1.3,0.3-1.9-0.6c2.4-2.1,5-2.3,8.2-1.4C885.6,421.2,883.2,420.5,881.3,421.7
			C881.3,421.7,881.3,421.7,881.3,421.7z"/>
		<path class="st80" d="M268.3,423.3c-0.3-0.1-0.6-0.3-1-0.3c-2.8,0.2-5.5,1.4-8.5-0.5c-1.8-1.2-4.6-0.2-6.9,0.3
			c2.6-2,8.6-2.1,11.2-0.2c0.3,0.2,0.9,0.1,1.3,0.2c2.4,0,4-1.2,4.9-3.4c0.2-0.6,0.3-1.4,1.2-1.1c0.8,0.2,0.5,1.1,0.5,1.7
			C270.9,421.6,269.5,422.4,268.3,423.3z"/>
		<path class="st248" d="M254.1,421.2c2.2-3.1,4.9-2.8,7.5-2.7c0.4,0,0.9,0.2,0.9,0.8c0,0.5-0.5,0.7-1,0.7
			C259.2,420.4,256.9,420.7,254.1,421.2z"/>
		<path class="st249" d="M860,443c-0.3,0-0.6-0.1-1-0.1c0.5-0.8-0.1-1.3-0.6-1.8c-0.6-0.9-2.2-1.2-1.7-2.8c0.6-2,1.6-3.9,3.4-4.6
			c1.5-0.6,2.6,0.9,3.2,2.4c0.2,0.6,0.1,1.3,0.3,1.9C865,442.3,864.6,442.8,860,443z"/>
		<path class="st83" d="M872,433.6c-0.3,0.6-0.7,1.1-1,1.7c-0.4-1-0.1-2.4-1.6-2.8C871.1,430.6,871,433.5,872,433.6z"/>
		<path class="st87" d="M238.8,436.4c-0.4-0.1-0.9-0.1-0.9-0.7c0-0.2,0.4-0.5,0.5-0.4C239,435.5,238.8,436,238.8,436.4L238.8,436.4z
			"/>
		<path class="st250" d="M905.8,433.3c0.2,1.4-0.8,1.6-1.7,1.7c-1.1,0.1-1.8-0.7-1.8-1.7c0-1.3,1.1-1.8,2.2-1.9
			C905.9,431.3,905.4,432.7,905.8,433.3z"/>
		<path class="st251" d="M908.5,432c0,0.7-0.2,1-0.8,1c-0.4,0-0.6-0.3-0.5-0.7c0.1-0.4,0.2-0.9,0.7-0.9
			C908.2,431.4,908.4,431.9,908.5,432z"/>
		<path class="st96" d="M249.2,515.9c-0.7,0-1.4,0-2.1,0.1c1-0.7,0.7-1.7,0.4-2.6C248.7,513.8,248.9,514.8,249.2,515.9z"/>
		<path class="st101" d="M401.4,444.6c-1.6-2.5,1.5-1,1.7-2.2c-1.7-1-2.7-2.7-3.9-4.3c2.6-0.8,3-0.6,3.3,1.6c-0.7,1.7,1,1.6,1.7,2
			c0.8,0.6,1.9,0.7,3.3,1.1C405.5,444.7,403.1,443.6,401.4,444.6z"/>
		<path class="st100" d="M402.5,439.7c-0.5-1.8-1.9-1.6-3.3-1.6c-0.9,0-1.8,0-2.7,0c2-1,4.4-0.8,6.5-1.5c0.9-0.3,1.4,0.5,1.5,1.2
			C404.6,439.1,403.8,439.7,402.5,439.7z"/>
		<path class="st252" d="M400.8,441.5c-2,0.9-3.2-0.3-4.5-0.7c-0.6-0.2-1.4-0.4-1.1-1.2c0.3-0.7,1-0.9,1.9-0.7
			C398.5,439.1,399.2,440.6,400.8,441.5z"/>
		<path class="st253" d="M353.4,559.7c-0.1,0.5,0.2,1.2-0.5,1.4c-0.6,0.2-1-0.4-1.3-0.8c-0.7-1.6-1.4-3.3-2-4.9
			c0.1-0.1,0.2-0.2,0.2-0.2c1.1-0.4,0.8-1.5,1.2-2.2c0.1-0.1,0.2-0.2,0.2-0.3c0.4,0.2,0.7,0.4,1.1,0.6c0.7,0.8,0.8,1.8,0.4,2.8
			C352.2,557.3,352.5,558.5,353.4,559.7L353.4,559.7z"/>
		<path class="st254" d="M353.4,559.7c-2.4-1.8-0.8-4.3-1.1-6.5c1.3,0.6,1.9,1.6,1,2.9C352.4,557.3,353.2,558.5,353.4,559.7z"/>
		<path class="st253" d="M349.6,555.3c-1.2-0.6-1.2-1.6-0.8-2.7c0.4-1.1,1.1-1,1.9-0.6c0.2,0.2,0.4,0.4,0.5,0.5c0,0-0.1,0.1-0.1,0.1
			C350.1,553.2,350.3,554.5,349.6,555.3L349.6,555.3z"/>
		<path class="st255" d="M676.3,475.1c-1.7,0-3.3-0.5-4.9-1.1c-1.1-1.4-1-2.9,0.4-3.8c1.4-0.9,3.1-1.6,4.8-0.4
			c0.8,0.6,0.8,1.3,0.5,2.1C676.7,473,676.5,474.1,676.3,475.1z"/>
		<path class="st256" d="M352.3,525.3c0-0.2,0-0.4,0-0.5c0.8-1.3,1.8-1.4,2.9-0.6c0.6,0.4,1.4,0.9,1,1.9c-0.6,1.7-2.1,1.3-3.4,1.4
			c0-0.6,0.1-1.2-0.5-1.6C352.3,525.7,352.3,525.5,352.3,525.3z"/>
		<path class="st257" d="M682.7,500.2c2,4.2,3.3,8.4,2.4,13.2c-0.5,2.6-2.2,3.9-3.5,5.8c-0.2,0-0.3-0.1-0.5-0.1
			c1-3.8-3.4-6.8-1.5-10.7c0.5-2.8,2.6-5.6,0.2-8.6c-0.3-0.4-0.9-1.3,0.1-1.9c0.9-0.5,1.3,0.3,1.8,0.8
			C682,499.2,682.4,499.7,682.7,500.2z"/>
		<path class="st258" d="M390.5,504.6c-0.6-0.1-1.2,0.2-1.8-0.4c1-2,3-2.7,4.8-3.6c1.3-0.6,1.3,0.4,1.3,1.2
			C393.4,502.7,391.9,503.7,390.5,504.6z"/>
		<path class="st132" d="M871.5,515.5c-2.5-0.9-4.2-2.5-3.3-5.5C870.4,511.2,871.7,512.9,871.5,515.5z"/>
		<path class="st139" d="M226.9,448.9c0.2,0,0.4,0,0.5,0c1.3,3,3.3,6,2.1,9.4c-0.9,2.4-2,4.8-2.6,7.4c-2.2-2.6,0-4.5,0.9-6.6
			c0.6-1.4,1.3-2.6-0.5-4.2C225.9,453.6,227,451,226.9,448.9z"/>
		<path class="st259" d="M256.8,573.3c1.1-1.4,2.8-1.3,4.3-1.5c0.4,0,0.8,0,0.9,0.4c0.1,0.2-0.1,0.6-0.2,0.7
			c-1.3,0.7-2.6,1.7-4.1,2.1C256.2,575.3,257.1,573.8,256.8,573.3C256.8,573.3,256.8,573.3,256.8,573.3z"/>
		<path class="st260" d="M559.5,578.8c1-0.2,1.9,0,2.8,0.5c1.7,1.9,1.4,3.8-0.1,5.6c-0.8,0.9-5,0.4-6.2-0.7
			c-1.2-1.1-0.9-2.2,0.3-2.9C557.5,580.6,558.7,579.9,559.5,578.8z"/>
		<path class="st151" d="M898.2,541.6c1.9,0.2,2.1,1.9,2,3.1c-0.2,1.2-0.5,3-2.5,3c0,0,0,0,0,0C897.7,545.6,897.6,543.6,898.2,541.6
			L898.2,541.6z"/>
		<path class="st261" d="M898.2,541.7c0.8,2.1,0.8,4.1-0.5,6c-1-0.8-2,0-3.1,0.3C894.8,542.6,895.4,541.3,898.2,541.7z"/>
		<path class="st262" d="M743.9,558.6c-0.1,2.4,0,4.9-0.3,7.3c-0.2,1.6-0.9,3-2.6,3.8c-1.8,0.8-2.5,2.7-3.7,4.2
			c-1.1-1.8-0.9-3.1,1.3-3.9c0.8-0.3,1.5-1,2.2-1.6c0.5-0.5,1.3-1.5,1.1-1.7c-2.2-3.1,1.1-5,1.4-7.5
			C743.5,558.9,743.7,558.7,743.9,558.6z"/>
		<path class="st263" d="M889.5,572.2c-0.2-1.4-1.3-1-2.2-1.1c1.5-0.7,3-1.3,4.8-2.2C891.7,570.7,890.6,571.4,889.5,572.2z"/>
		<path class="st263" d="M887.3,571.1c-1.4,1.5-2.2-0.5-3.3-0.6C885.6,567.9,886.2,571.2,887.3,571.1z"/>
		<path class="st167" d="M881.3,574.4c0.1-1,0.8-1.7,1.6-2.2c0,0,0.1,0.1,0.1,0.1c0.5,1.5-0.2,2.1-1.6,2.2L881.3,574.4z"/>
		<path class="st264" d="M881.4,574.4c0.7-0.6,1.5-1.2,1.6-2.2c0.7,0.1,1.4,0.3,2.1,0.4c0.6,0.1,1.5-0.9,1.9,0.1
			c0.3,0.9-0.7,1.3-1.4,1.7c-0.9,0.5-1.8,0.9-2.7,1.3C881.6,576.3,881.3,575.5,881.4,574.4z"/>
		<path class="st265" d="M714.4,601.1c-0.3,0.2-0.7,0.4-1,0.6c-0.6-0.2-1.1-1.1-1.9-0.6c0.3,0.6,1.2,0.4,1.4,1.1
			c0,0.2,0,0.3-0.1,0.5c-0.6,0.8-1.1,1.6-2.3,1.1c-1.2-0.6-2.2-0.1-3.3,0.4c-0.5,0.1-0.9,0.4-1.4,0.2c-1.2-0.1-2.3-0.6-0.8-1.6
			c2.1-1.5,4.3-2.8,6.6-3.7C712.6,598.7,714.9,598.4,714.4,601.1z"/>
		<path class="st171" d="M705.7,604.4c0.4-0.2,0.7-0.4,1.1-0.6c1.9-1,3.7-0.1,5.4,0.5c0,0,0,0.1,0,0.1c-0.8,0.9-1.9,1.4-2.9,1
			c-1.7-0.6-3.2,0-4.7,0.1C705,605.1,705.4,604.8,705.7,604.4z"/>
		<path class="st266" d="M712.9,602.2c-0.9-0.2-2,0.3-3-0.7c0.7-0.8,1.2-1.7,2.4-1.7c1,0,1.1,1,1.1,1.8
			C713.2,601.9,713,602.1,712.9,602.2z"/>
		<path class="st169" d="M712.2,604.3c-1.8-0.2-3.6-0.4-5.4-0.5c1.1-1.1,2.5-1.5,3.9-0.6c1,0.7,1.4-0.2,2.1-0.4
			C712.6,603.3,712.4,603.8,712.2,604.3z"/>
		<path class="st267" d="M224.1,593.5c-0.2,1.9,0.1,3.7-2.1,5c-2,1.2-3.6,0.5-5.3-0.2c-1-0.4-0.4-1,0-1.5c1-1.2,2-2.3,3-3.5
			C221.2,591.7,222.7,593,224.1,593.5C224.1,593.5,224.1,593.5,224.1,593.5z"/>
		<path class="st3" d="M880.3,521.5c-0.1-0.9,0.3-1.7,0.7-2.6c2.4-0.5,3.7,1.8,5.7,2.2c3,0.5,4.6,2.7,6,5c1,1.8,1.9,3.7,0.7,6.1
			c-1.4-1.8-2.9-3.2-4.5-4.4c-1.7-1.3,1.1-2.6-0.1-4c-0.6,0.8-1.2,1.6-1.8,2.5c-0.3,0.5,0.1,1.5-0.9,1.4c-0.7-0.1-0.9-0.8-1.2-1.4
			c-0.4-0.8-1-1.7-0.9-2.5C884.5,520,882.3,520.9,880.3,521.5z"/>
		<path class="st194" d="M743.9,460.9c0.5,0.2,1.1,0.4,1.6,0.6c0.4,0.5,0.7,1.1,1.1,1.6c-4-0.2-5.5-1.2-6-3.8
			C741.4,460.5,742.8,460.3,743.9,460.9z"/>
		<path class="st268" d="M841,597.8c1.6-0.5,2.3-2,3.2-3.1c1.1-1.4,2.5-1.5,3.7-0.4c1.3,1.3,0.8,2.6-0.4,3.7
			C845.3,600.3,843.1,598.9,841,597.8C841,597.8,841,597.8,841,597.8z"/>
		<path class="st202" d="M503.9,506.2c0.2,0,0.3,0,0.5,0c0.5-2.2,1.4-4.3,1.7-6.5c1,1.5,0.7,3.2,0.3,4.7c-0.8,3.1-0.5,5.9,1.9,8.1
			c1.1,1,1.2,2.6,2.2,3.7c-2.9,2.3-1.6-1.1-2.3-1.7c-2.4-1.3-3.8-3.4-4.4-6C503.9,507.7,503.9,506.9,503.9,506.2z"/>
		<path class="st200" d="M506.1,499.6c0.2,2.4-0.6,4.5-1.7,6.5c-0.1-2.7,1.1-5.1,1.7-7.6C506.1,498.9,506.1,499.3,506.1,499.6z"/>
		<path class="st200" d="M503.9,508.4c1.3,2.1,2.7,4.2,4.4,6C504.6,513.1,504.1,512.4,503.9,508.4z"/>
		<path class="st269" d="M550.2,440.3c2.1-0.4,2.6,1.2,3.6,2c0.3,0.3,0.1,1-0.5,0.9c-1.5-0.2-2.9-0.9-4.2-1.8
			c-0.2-0.1-0.3-0.5-0.2-0.7C549.3,439.9,550.1,440.3,550.2,440.3z"/>
		<path class="st270" d="M503.7,552.7c1-0.1,3.2,2.4,2.8,3.2c-1,1.9-0.2,3.4,0.5,5.1c0.2,0.6,0.5,1.4-0.3,1.6
			c-0.8,0.3-1.1-0.5-1.3-1.1c-0.7-1.9-1.5-3.6-2.8-5.2C501.7,555,502.5,552.7,503.7,552.7z"/>
		<path class="st217" d="M505.6,526.9c1-1.4,1.7-3.7,3.8-1.1c-0.3,0.3-0.5,0.6-1.1,1.1c0.8-0.4,0.8-0.8,1.1-1.1
			c2.2,1.4,0.8,2.6-0.2,3.8c-1.5,1.7-1.7,0.3-2.2-0.8c-0.3-0.7-0.9-0.4-1.4-0.2C505.6,528,505.6,527.5,505.6,526.9z"/>
		<path class="st271" d="M352.3,514.4c-0.2-0.5-0.4-1.1-0.5-1.6c0.5,0.2,1,0.3,1.5,0.5c0.5,0.2,0.9,0.7,0.5,1.2
			C353.3,515.1,352.8,514.5,352.3,514.4z"/>
		<path class="st272" d="M349.6,555.3c-0.4-1.5-0.8-2.9,1.6-2.7C351.3,553.9,353,556.1,349.6,555.3z"/>
		<path class="st273" d="M505.5,555.3c0,0.8-0.3,1.3-0.9,1.3c-1.2,0-1.4-1-1.6-1.8c-0.1-0.6,0.3-1.1,0.9-1
			C504.9,554,505.2,554.7,505.5,555.3z"/>
		<path class="st274" d="M509.4,525.8c0.7,1.2,0.3,2.1-1,2.5c-0.7,0.2-1.1-0.5-1.1-1.2C507.2,525.5,508.5,525.9,509.4,525.8
			C509.4,525.8,509.4,525.8,509.4,525.8z"/>
	</g>
</g>
</svg>
